<?xml version="1.0" standalone="no"?>
<!DOCTYPE svg PUBLIC "-//W3C//DTD SVG 1.1//EN" "http://www.w3.org/Graphics/SVG/1.1/DTD/svg11.dtd" >
<!--
2013-9-30: Created.
-->
<svg>
<metadata>
Created by iconfont
</metadata>
<defs>

<font id="iconfont" horiz-adv-x="1024" >
  <font-face
    font-family="iconfont"
    font-weight="500"
    font-stretch="normal"
    units-per-em="1024"
    ascent="896"
    descent="-128"
  />
    <missing-glyph />
    
    <glyph glyph-name="jiesuo" unicode="&#59077;" d="M768.25422 896q48.810328 0 94.061569-18.303873t80.333664-50.33565 56.436941-74.740814 21.354518-91.519364l0-150.49851-123.042701 0 0 122.025819q0 64.063555-36.099305 99.654419t-97.112214 35.590864q-54.911619 0-88.468719-35.590864t-33.5571-99.654419l0-124.059583-128.12711 0 0 152.532274q0 48.810328 19.320755 91.519364t53.386296 74.740814 80.333664 50.33565 101.179742 18.303873zM766.220457 202.486594l0-87.451837 0-47.793446q0-27.455809-9.660377-51.860973t-26.438928-41.692155-39.658391-27.455809-50.33565-10.168818l-514.542205 0q-27.455809 0-49.82721 9.660377t-38.641509 26.438928-24.913605 39.14995-8.643496 47.793446l0 323.368421q0 28.472691 19.829196 47.793446t46.268123 19.320755l629.449851 0q28.472691 0 47.793446-19.320755t19.320755-47.793446l0-179.988083z"  horiz-adv-x="1024" />

    
    <glyph glyph-name="luxian" unicode="&#59271;" d="M900.928061 595.69954c-41.065937 0-74.470067-33.429367-74.470067-74.491575 0-9.996678 1.992459-19.534915 5.581341-28.254507L611.776954 287.774425c-11.809437 7.890714-25.986902 12.502755-41.225579 12.502755-7.739582 0-15.275517-1.177825-22.450211-3.444449l-70.117767 88.430028c5.313223 10.368138 8.145851 21.920242 8.145851 33.919531 0 41.062208-33.379569 74.491575-74.44346 74.491575-41.06389 0-74.444483-33.428344-74.444483-74.491575 0-3.823072 0.294724-7.602142 0.858589-11.313673L160.865209 268.777769c-11.51983 7.330966-25.1672 11.598152-39.800055 11.598152-41.06389 0-74.470067-33.429367-74.470067-74.491575 0-41.086767 33.406176-74.516134 74.470067-74.516134 41.03933 0 74.418899 33.429367 74.418899 74.516134 0 7.618515-1.154337 14.973016-3.288018 21.900799L363.62629 362.302839c0.463577-0.391926 0.9292-0.781806 1.404034-1.163499 13.150023-10.630105 29.72724-16.47523 46.656488-16.47523 9.850749 0 19.414961 1.915629 28.273062 5.561669l67.388498-84.989673c-7.283169-11.645225-11.240456-25.213241-11.240456-39.451524 0-41.085744 33.380593-74.516134 74.444483-74.516134 41.062867 0 74.44346 33.43039 74.44346 74.516134 0 6.898107-0.961947 13.573133-2.724153 19.917632l224.667895 209.261001c10.197664-5.257747 21.747171-8.247848 33.989485-8.247848 41.037283 0 74.417876 33.429367 74.417876 74.491575C975.345937 562.270173 941.965344 595.69954 900.928061 595.69954zM121.065153 182.960241c-12.646536 0-22.900484 10.278087-22.900484 22.924105 0 12.620435 10.253948 22.899546 22.900484 22.899546 12.596392 0 22.874901-10.279111 22.874901-22.899546C143.940054 193.238328 133.660522 182.960241 121.065153 182.960241zM397.377335 401.295921c-5.466726 4.408403-8.591008 10.908444-8.591008 17.886369 0 12.620435 10.278509 22.899546 22.900484 22.899546 12.620952 0 22.874901-10.278087 22.874901-22.899546 0-6.04774-2.31993-11.721973-6.505424-16.011672-0.064471-0.063445-0.132012-0.122797-0.195459-0.186242C418.790894 393.940396 402.818477 396.912078 397.377335 401.295921zM570.551375 202.8615c-12.621976 0-22.875924 10.278087-22.875924 22.923082 0 6.882757 2.994317 13.228279 8.278886 17.624403 0.340775 0.24457 0.68769 0.477884 1.018231 0.741897 0.199553 0.157589 0.389896 0.323365 0.583308 0.488117 2.840814 1.973958 7.224838 4.046153 12.995498 4.046153 12.595369 0 22.875924-10.278087 22.875924-22.899546C593.427299 213.139587 583.146744 202.8615 570.551375 202.8615zM900.928061 498.308419c-12.64756 0-22.900484 10.278087-22.900484 22.899546 0 12.620435 10.252925 22.899546 22.900484 22.899546 12.595369 0 22.873877-10.278087 22.873877-22.899546C923.801938 508.586506 913.52343 498.308419 900.928061 498.308419z"  horiz-adv-x="1024" />

    
    <glyph glyph-name="jingyin1" unicode="&#59037;" d="M825.757001 400.280802 952.133331 526.924153c10.846467 10.901281 10.846467 28.520567-0.026607 39.394219-10.875121 10.832719-28.479778 10.847046-39.354899-0.027629l-126.485829-126.740566L659.782215 566.290743c-10.875121 10.873652-28.508432 10.860349-39.383553 0.027629-10.846467-10.873652-10.846467-28.492938-0.025584-39.394219l126.402937-126.643352-126.402937-126.603443c-10.81986-10.901281-10.81986-28.520567 0.025584-39.393195 5.451375-5.41022 12.565692-8.135284 19.677961-8.135284 7.1399 0 14.280823 2.725064 19.705592 8.162914l126.484805 126.716007 126.485829-126.716007c5.423745-5.436826 12.563645-8.162914 19.704568-8.162914 7.113293 0 14.225562 2.725064 19.650331 8.135284 10.873074 10.872628 10.873074 28.491914 0.026607 39.393195L825.757001 400.280802zM473.854187 740.981391c-9.48439 4.673439-20.712566 3.665483-29.133698-2.616594l-228.196399-170.792874L97.614108 567.571922c-15.398319 0-27.852466-12.45466-27.852466-27.839045l0-315.600935c0-15.383362 12.454147-27.839045 27.852466-27.839045l118.908959 0 228.196399-170.791851c4.905931-3.679809 10.764599-5.54632 16.651921-5.54632 4.250988 0 8.503 0.981351 12.481777 2.929726 9.402523 4.740978 15.344082 14.361079 15.344082 24.908296L489.197245 716.072071C489.198269 726.620311 483.256709 736.23939 473.854187 740.981391zM433.545527 103.402277 242.441405 246.437971c-4.797456 3.583618-10.656124 5.54632-16.651921 5.54632l-100.376124 0L125.41336 511.880529l100.376124 0c5.995797 0 11.854465 1.961678 16.651921 5.54632l191.104123 143.035694L433.545527 103.402277z"  horiz-adv-x="1024" />

    
    <glyph glyph-name="biaojidian1" unicode="&#58885;" d="M517.045618 301.364955c-134.120006 10.161431-208.554255-13.601786-248.054469-36.356023l0-245.394966c0-11.189853-9.055608-20.244067-20.244896-20.244067-11.169845 0-20.244896 9.055237-20.244896 20.244067L228.501357 731.858616c-23.52575 8.362458-40.488769 30.602995-40.488769 57.014528 0 33.54807 27.183196 60.731176 60.733665 60.731176 33.550468 0 60.733665-27.182083 60.733665-60.731176 0-26.411533-16.963019-48.65207-40.488769-57.014528L268.991149 643.550361c57.530585 7.15598 166.679873 1.977028 260.885208-110.944811 135.067626-161.890111 407.340652-100.012831 407.340652-100.012831S755.649467 283.275971 517.045618 301.364955zM248.746253 809.117211c-11.169845 0-20.244896-9.055237-20.244896-20.244067 0-11.189853 9.075051-20.244067 20.244896-20.244067 11.190312 0 20.244896 9.054213 20.244896 20.244067C268.991149 800.062997 259.936564 809.117211 248.746253 809.117211zM498.777831 506.667807c-67.928825 81.449034-143.925727 98.549503-195.703049 98.549503-13.008801 0-24.515328-1.087774-33.926037-2.451842l0-292.326858c40.133667 18.424628 99.700715 33.825386 186.728286 33.825386 20.421935 0 42.050398-0.850367 64.232492-2.530636 12.297574-0.929162 24.791632-1.403976 37.207915-1.403976 79.197935 0 150.865051 19.09694 208.691384 42.267663C676.649039 390.048763 571.313769 419.722596 498.777831 506.667807zM188.013611 34.401764c-36.277691-6.999414-60.733665-20.046568-60.733665-35.031864 0-18.917862 38.96705-34.753525 91.574307-39.20286 3.103815-0.77055 6.306895-1.284249 9.648126-1.284249l40.489792 0c3.340208 0 6.544311 0.5137 9.66757 1.284249 52.587814 4.449335 91.554864 20.283975 91.554864 39.20286 0 14.986319-24.45495 28.033473-60.733665 35.031864l0 39.99183c59.329631-11.999288 101.222433-41.039695 101.222433-75.023694 0-44.717458-72.516495-80.974219-161.956098-80.974219-89.43858 0-161.956098 36.256762-161.956098 80.974219 0 33.983999 41.892802 63.025429 101.222433 75.023694L188.013611 34.401764z"  horiz-adv-x="1024" />

    
    <glyph glyph-name="bofang" unicode="&#58881;" d="M839.164908 338.421942 240.50216-45.694459c-32.559867-21.048385-76.198502-11.69332-76.198502 19.264762L164.303659 793.993768c0 35.897581 40.684228 38.282908 76.198502 19.23304L839.164908 429.157479C863.815318 404.092617 863.815318 363.471454 839.164908 338.421942zM227.422748 30.839635l568.042125 352.942401L227.422748 736.709087C227.422748 680.378128 227.422748 45.61106 227.422748 30.839635z"  horiz-adv-x="1024" />

    
    <glyph glyph-name="msnui-save-bold" unicode="&#59069;" d="M846.799-63.154h-671.46c-1.56 0.54-3.060 1.26-4.62 1.56-38.88 6.96-91.020 51.72-104.16 88.8-2.28 6.36-3.42 13.14-5.16 19.8v671.46c0.54 1.56 1.32 3.060 1.62 4.62 7.979 42.66 59.58 95.4 101.28 106.62 3.66 0.959 7.38 1.8 11.099 2.7h597.78c-44.34 9.78 151.2-15.9 189.42-187.56v-597.84c-0.54-1.5-1.26-3-1.56-4.62-7.979-42.721-61.441-91.68-103.139-102.9-3.66-0.959-7.38-1.8-11.099-2.64v0zM511.1 51.745c96.18 0 198 0 294.18 0.060 24.48 0 37.38 12.84 37.38 37.080 0 105.54 0 124.86 0 230.4 0 24.3-13.020 37.44-37.080 37.44-192.66 0-396.54 0-589.14 0-23.7 0-36.96-13.14-36.96-36.72-0.060-105.84-0.060-125.401 0-231.18 0-3.84 0.12-7.8 0.959-11.46 3.96-16.74 16.5-25.5 36.481-25.5 96.24-0.179 198.060-0.12 294.18-0.12v0zM494.54 472.646h188.939c26.341 0 39.060 12.659 39.060 38.94 0 71.939 0 91.32 0 163.26 0 26.46-12.42 38.88-38.94 38.88-137.22 0-268.8 0-406.020 0-25.98 0-38.7-12.6-38.7-38.399-0.060-72.18-0.060-91.861 0-164.040 0-25.8 12.84-38.58 38.58-38.58 68.64-0.060 148.44-0.060 217.080-0.060v0zM541.461 656.006h118.14v-121.501h-118.14v121.501zM541.461 656.006z"  horiz-adv-x="1024" />

    
    <glyph glyph-name="msnui-map-locate" unicode="&#58985;" d="M260.348 572.904q5.735-21.986 12.904-47.794t16.251-52.574 20.551-53.051 24.853-49.228v-376.618l-238.971-59.265v597.427zM332.040 605.404q0 4.78-0.478 9.081t-0.478 9.081q0 43.015 16.728 80.294t45.404 65.478 66.912 44.449 82.206 16.251 82.206-16.251 66.912-44.449 45.404-65.478 16.728-80.294v-11.471q0-5.735-0.956-11.471-5.735-50.662-22.463-97.022t-42.537-89.375-59.265-82.684-71.692-75.992q-6.692-6.692-14.339-6.692t-14.339 6.692q-39.192 36.324-72.647 76.471t-59.265 84.118-42.537 91.287-21.508 97.978zM542.334 711.507q-19.118 0-35.368-6.692t-28.198-18.639-19.118-28.198-7.169-34.412 7.169-34.412 19.118-28.198 28.198-18.639 35.368-6.692 35.845 6.692 28.676 18.639 19.118 28.198 7.169 34.412-7.169 34.412-19.118 28.198-28.676 18.639-35.845 6.692zM394.172 292.829q27.721-30.588 54.008-55.441t47.316-43.971q24.853-21.986 46.839-39.192 11.471 9.559 25.809 21.986 12.427 10.515 28.676 26.765t37.28 36.324v-304.927l-239.927 59.265v299.192zM932.334 592.021v-598.382l-238.971-59.265v366.103q5.735 5.735 10.992 11.949t10.992 11.949q19.118 21.029 35.368 50.184t29.155 62.133 22.941 65.956 17.684 61.655z"  horiz-adv-x="1024" />

    
    <glyph glyph-name="msnui-org" unicode="&#59009;" d="M546.292 342.747c-64.586 0-125.305 25.152-170.975 70.822-45.666 45.668-70.815 106.386-70.815 170.966 0 64.582 25.149 125.299 70.815 170.966 45.668 45.669 106.388 70.822 170.975 70.822 64.586 0 125.304-25.151 170.975-70.822 45.666-45.667 70.815-106.386 70.815-170.966 0-64.582-25.15-125.299-70.815-170.966-45.668-45.67-106.389-70.822-170.975-70.822zM546.292 736.385c-83.731 0-151.85-68.12-151.85-151.85s68.12-151.851 151.85-151.851 151.851 68.12 151.851 151.851-68.121 151.85-151.851 151.85zM265.122-64.952c-53.324 0-103.454 20.766-141.156 58.473-37.697 37.702-58.458 87.826-58.458 141.14s20.761 103.439 58.458 141.141c37.702 37.707 87.832 58.473 141.156 58.473s103.454-20.766 141.156-58.473c37.698-37.702 58.459-87.827 58.459-141.141s-20.761-103.438-58.459-141.141c-37.703-37.706-87.832-58.472-141.156-58.472zM265.122 244.337c-60.474 0-109.674-49.199-109.674-109.674 0-60.474 49.2-109.673 109.674-109.673 60.475 0 109.674 49.199 109.674 109.673 0 60.475-49.2 109.674-109.674 109.674zM799.346 5.341c-86.812 0-157.438 70.627-157.438 157.438s70.627 157.438 157.438 157.438 157.438-70.627 157.438-157.438-70.628-157.438-157.438-157.438zM799.346 230.278c-37.219 0-67.499-30.28-67.499-67.499s30.28-67.499 67.499-67.499 67.499 30.28 67.499 67.499-30.28 67.499-67.499 67.499zM395.262 438.966l77.123-46.273-84.352-140.587-77.123 46.273 84.353 140.588zM727.103 464.082l84.349-168.697-80.442-40.222-84.349 168.697 80.442 40.222z"  horiz-adv-x="1024" />

    
    <glyph glyph-name="msnui-service" unicode="&#59036;" d="M272.16 832.396c-115.182 0-208.556-93.374-208.556-208.556s93.374-208.556 208.556-208.556h208.556v208.556c0 115.182-93.374 208.556-208.556 208.556zM416.546 479.454h-144.385c-79.618 0-144.385 64.766-144.385 144.385s64.766 144.385 144.385 144.385 144.385-64.766 144.385-144.385v-144.385zM962 623.84c0 115.182-93.374 208.556-208.556 208.556s-208.556-93.374-208.556-208.556v-208.556h208.556c115.182 0 208.556 93.374 208.556 208.556zM609.058 623.84c0 79.618 64.766 144.385 144.385 144.385s144.385-64.766 144.385-144.385-64.766-144.385-144.385-144.385h-144.385v144.385zM63.604 142.556c0-115.182 93.374-208.556 208.556-208.556s208.556 93.374 208.556 208.556v208.556h-208.556c-115.182 0-208.556-93.374-208.556-208.556zM416.546 142.556c0-79.618-64.766-144.385-144.385-144.385s-144.385 64.766-144.385 144.385 64.766 144.385 144.385 144.385h144.385v-144.385zM753.444 351.113h-208.556v-208.556c0-115.182 93.374-208.556 208.556-208.556s208.556 93.374 208.556 208.556-93.374 208.556-208.556 208.556zM753.444-1.829c-79.618 0-144.385 64.766-144.385 144.385v144.385h144.385c79.618 0 144.385-64.766 144.385-144.385s-64.766-144.385-144.385-144.385z"  horiz-adv-x="1024" />

    
    <glyph glyph-name="renti" unicode="&#58886;" d="M697.857245 359.923523c-9.330617 50.502219-26.928807 146.156162-27.276438 149.320108 0 2.085786-4.151419 75.788595-5.088512 85.623026-1.02274 10.741294-32.657161 50.900231-59.046888 58.265978l-0.347631 0.100763-1.607164-0.015114c-43.19693 0-53.998681 32.934258-54.436999 34.334859l-0.564271 1.803651-1.068084-0.020153c2.408226 5.148969 3.793712 10.872285 3.793712 16.92308l0 4.907139c4.070809 4.816453 17.633456 21.538007 17.054071 29.619169-0.574347 8.076123-11.839606 10.156871-17.054071 10.685875L552.214972 771.881368C552.22001 794.003798 534.218771 812 512.09634 812s-40.118632-17.996202-40.118632-40.118632l0-18.207803c-2.836467-0.740605-7.743606-2.589599-10.811828-6.8972-2.564408-3.597225-3.305014-8.066047-2.201663-13.280512 2.624866-12.378686 9.295351-15.915454 13.013491-16.928118l0-10.308015c0-7.602539 2.166396-14.696226 5.854308-20.762135-1.687774-0.901825-4.282411-2.241968-7.189412-3.738293-24.072187-12.403877-88.016138-45.35325-103.513427-69.118111l-0.37786-0.977397c-5.456295-33.951961-54.285855-270.638288-57.162627-284.553604-4.907139-5.889574-32.954411-40.209319-31.004654-52.532585 1.138617-7.204526 6.005451-7.980399 8.050932-7.980399 2.050519 0 4.161496 0.659995 5.985299 1.48121-1.073122-11.441594 0.624728-32.954411 1.052969-38.032846l0.231754-2.781048L303.678962 229.098391c0.060458-5.138893 1.042893-11.320679 5.320266-12.036093l0.614652-0.050381c5.864384 0 29.256423 19.714204 31.961899 22.963798 4.478898 5.375685 14.439282 90.303449 14.434244 90.983597 0.715415 9.839469 50.39138 172.591232 59.268566 186.607311 5.894613-9.119016 14.963247-77.476369 12.544945-96.807675-0.992512-7.919941-3.506539-18.993752-6.166672-30.717481-4.020428-17.709028-8.579936-37.78094-8.967872-52.028772-0.629766-23.472649-0.634804-302.202175 0-331.377988 0.256945-11.799301 5.819041-34.415469 11.713653-58.356664 8.106352-32.959449 18.197727-73.974868 12.12678-81.733589-10.524654-13.451808-20.847784-48.638111-18.756959-58.946125 0.398012-1.954795 1.244418-3.299975 2.514027-4.010352 4.705614-2.61479 26.203316-4.282411 38.934672-4.282411 12.267847 0 13.6886 1.420753 14.449358 2.186549 4.216915 4.221953 7.990475 66.241338 5.108664 84.005786-0.775872 4.776148-1.934642 7.229717-3.834017 8.171847-5.002863 3.672797-3.949894 58.311321 3.410814 68.745289 5.279961 7.476585 1.818765 43.322883-2.876772 85.885009-1.309914 11.849683-2.660133 24.097378-2.393112 25.860723 1.365333 6.146519 30.037333 121.232531 38.80368 146.534022 7.874598-29.422681 35.559124-177.100359 31.68984-186.466244-8.025742-8.635355 2.786086-70.453215 6.7914-76.750878 3.536768-5.557058 0.695262-64.528374-4.967597-75.592108-6.136443-11.99075 0.544118-72.140989 4.035542-84.93784 1.113427-4.080886 4.886986-8.937643 16.555296-8.937643 11.562509 0 26.43507 4.811415 31.165875 7.395975 3.592187 1.959833 6.302701 7.647882 7.24987 15.215154 0.987474 7.879636-0.020153 19.084438-6.111252 24.73722-7.622691 7.078573-10.655646 54.588143-9.320541 61.268704 1.254494 6.267434 23.623793 145.319833 24.611267 151.612458 0.025191 2.453569 2.519065 245.714657 2.519065 253.821009 0 8.51444-18.469786 115.282499-21.457397 130.835208-2.31754 12.066322 6.549569 55.394244 10.821904 74.992571 3.446081-12.484487 9.073673-33.609368 9.995651-41.609919 1.390524-12.12678 29.311843-85.124251 30.53107-88.308349l20.575724-48.597806c0.594499-3.531729 1.017702-11.728768-6.081023-17.477274l-0.906863-0.735567-0.025191-1.163808c-1.622278-71.506185 45.292792-96.898362 52.426785-98.253619 6.17171-1.168846 7.567272 5.09355 7.904827 9.239931 3.884399 0.634804 9.340694 5.400876 10.313053 7.668034 0.735567 1.728079 0.282135 14.52493-1.365333 38.058037 3.083336-1.632354 7.199488-3.572034 10.025879-3.975085 6.403464-0.906863 6.49415 6.343006 6.559646 9.280236 0.015114 0.544118 0.010076 1.007626 0.060458 1.304876C745.674141 274.396221 745.951238 276.058804 697.857245 359.923523z"  horiz-adv-x="1024" />

    
    <glyph glyph-name="weibiaoti1" unicode="&#59025;" d="M966.144 715.776l-327.68 0 0-45.056 274.538496 0c8.99072 0 16.277504-6.87104 16.277504-15.347712l0-417.816576c0-8.476672-7.288832-15.347712-16.277504-15.347712L109.973504 222.208c-8.99072 0-16.277504 6.87104-16.277504 15.347712L93.696 655.372288c0 8.476672 7.286784 15.347712 16.277504 15.347712L384.512 670.72 384.512 715.776l-327.68 0c-10.180608 0-18.432-8.251392-18.432-18.432l0-501.76c0-10.180608 8.251392-18.432 18.432-18.432l346.74688 0-73.33888-128.342016 362.496 0L619.39712 177.152l346.74688 0c10.180608 0 18.432 8.251392 18.432 18.432L984.576 697.344C984.576 707.524608 976.324608 715.776 966.144 715.776zM511.488 549.730304l92.499968 98.77504-53.520384 0c0.612352 1.835008 0.956416 3.790848 0.956416 5.828608L551.424 785.408c0 10.180608-8.251392 18.432-18.432 18.432l-43.008 0c-10.180608 0-18.432-8.251392-18.432-18.432l0-131.072c0-2.039808 0.344064-3.995648 0.956416-5.828608l-53.520384 0L511.488 549.730304z"  horiz-adv-x="1024" />

    
    <glyph glyph-name="qingchuhuancun" unicode="&#59272;" d="M512-62.620967c-246.331291 0-445.99982 199.668529-445.99982 445.99982S265.668709 829.37765 512 829.37765s445.99982-199.668529 445.99982-445.99982S758.331291-62.620967 512-62.620967zM512 773.627928c-215.528752 0-390.249075-174.720324-390.249075-390.249075s174.720324-390.249075 390.249075-390.249075 390.249075 174.720324 390.249075 390.249075S727.528752 773.627928 512 773.627928zM658.037051 411.281343l78.830393-78.830393c21.770839-21.770839 21.770839-57.059554 0-78.830393L559.665603 76.418716c-21.770839-21.769816-57.059554-21.769816-78.830393 0l-275.934516 275.934516c-21.770839 21.770839-21.770839 57.059554 0 78.858022l78.634942 78.634942 39.414685 39.415708 59.122539 59.122539c21.770839 21.770839 57.059554 21.770839 78.830393 0l78.830393-78.830393 98.538247 98.565876c21.770839 21.770839 57.059554 21.770839 78.830393 0l39.415708-39.414685c21.770839-21.770839 21.770839-57.059554 0-78.830393L658.037051 411.281343zM263.828804 411.281343c-10.899234-10.899234-10.899234-28.544103 0-39.415708l19.707854-19.707854 39.414685 39.414685 39.415708-39.414685-39.415708-39.415708 39.415708-39.414685 59.122539 59.122539 39.414685-39.415708-59.122539-59.122539 39.414685-39.414685 39.414685 39.414685 39.414685-39.414685-39.414685-39.415708 19.707854-19.707854c10.899234-10.899234 28.544103-10.899234 39.415708 0l59.122539 59.122539-275.934516 275.962146L263.828804 411.281343zM707.319477 559.129646l-19.707854 19.707854c-5.435803 5.435803-14.272052 5.435803-19.707854 0L539.79095 450.723657l-33.951253 33.951253-25.171286 25.171286-39.414685 39.414685c-10.899234 10.899234-28.544103 10.899234-39.414685 0l-39.414685-39.414685 275.934516-275.934516 39.414685 39.415708c10.871605 10.871605 10.871605 28.544103 0 39.414685l-39.414685 39.415708-25.171286 25.171286-33.951253 33.951253 128.113843 128.11282C712.75528 544.857595 712.75528 553.666214 707.319477 559.129646z"  horiz-adv-x="1024" />

    
    <glyph glyph-name="anquan" unicode="&#58968;" d="M765.823939 175.176974c-5.818519-8.345062-3.76986-19.826558 4.576225-25.644053 8.346085-5.818519 19.826558-3.768837 25.644053 4.576225 43.642986 62.60485 75.646887 131.585921 95.120404 205.028607 15.557324 58.674331 23.186072 120.28248 22.673395 183.113481-0.873903 107.075691-24.888853 180.070168-25.910113 183.124737-2.491751 7.448646-9.432837 12.497639-17.286712 12.57541-199.24795 1.970888-300.879652 89.660042-335.367117 127.327944-2.113127 2.334161-11.394515 11.595083-26.167986 12.45773-7.540743 0.440022-19.045775-1.279133-30.981618-11.977799-0.432859-0.387833-0.847298-0.796132-1.24127-1.223874-103.628172-112.286366-268.574898-125.930107-334.682525-126.585023-8.15575-0.080841-15.288195-5.51562-17.528212-13.359262-0.390903-1.367137-9.637498-34.112935-15.561417-87.592964-5.435803-49.085952-8.964162-125.85029 5.102205-212.800617 15.845896-97.953939 50.308803-188.583053 102.430904-269.368984 65.025992-100.787474 157.74265-186.252984 275.575336-254.022461 2.366907-1.360997 5.007037-2.179642 7.728008-2.394537l2.535753-0.200568c0.48607-0.038886 0.971118-0.058328 1.455141-0.058328 3.215228 0 6.382361 0.841158 9.18315 2.451842 56.915267 32.733519 109.072161 69.930699 155.027819 110.561072 5.285377 4.143367 71.255881 55.184857 119.226428 61.700247 10.080589 1.369184 17.141402 10.650571 15.772218 20.73116-1.370207 10.081613-10.657734 17.152658-20.73116 15.772218-59.842946-8.127098-134.420479-67.152423-137.567145-69.661569-0.246617-0.196475-0.488117-0.400113-0.723477-0.608867-42.011836-37.190017-89.50757-71.429843-141.281747-101.856829-108.699678 63.886029-194.368826 143.504368-254.727519 236.758262-49.371454 76.277244-82.105996 161.936159-97.295953 254.596536-21.170159 129.138172-1.976004 236.591463 6.095835 272.801153 85.770456 2.565429 163.190733 20.509103 230.319619 53.404304 57.494459 28.173666 94.758154 61.10673 116.050086 84.026742 3.2623 2.784416 4.119831 2.197038 4.929266 1.450025 21.056572-22.973224 58.260915-56.280818 116.13809-84.859713 67.584258-33.373085 145.643078-51.53063 232.217852-54.039777 6.53995-24.321942 19.805068-82.867336 20.429285-159.429059 0.48607-59.544141-6.729262-117.873618-21.444405-173.370583C837.18829 299.310156 806.997688 234.240161 765.823939 175.176974zM277.44594 617.538941c9.709129 3.034103 15.121396 13.365402 12.087293 23.074531-3.034103 9.710153-13.363356 15.120372-23.075555 12.087293-20.204158-6.313799-47.700395-9.003048-47.968501-9.028631-8.190543-0.779759-14.870686-6.898107-16.366759-14.988366-0.582261-3.15076-14.074553-78.3126 2.344395-178.759313 1.476631-9.033747 9.290597-15.4509 18.155499-15.4509 0.986467 0 1.988284 0.079818 2.994194 0.24457 10.039657 1.641383 16.847713 11.110035 15.20633 21.149693-11.474332 70.195735-7.224542 128.019699-4.311189 152.934135C247.749594 610.424916 263.650749 613.227752 277.44594 617.538941z"  horiz-adv-x="1024" />

    
    <glyph glyph-name="msnui-template-web" unicode="&#59267;" d="M64.004 831.935v-256.016h384.024v256.016h-384.024zM384.025 639.924h-256.017v128.007h256.017v-128.007zM64.003 511.916v-192.012h384.024l0 192.012h-384.024zM384.025 383.907h-256.017v64.004h256.017v-64.004zM512.033 831.935v-512.032h448.028v512.032h-448.028zM896.056 383.908h-320.020v384.024h320.020v-384.024zM64.003 255.9v-320.020h896.055v320.020h-896.055zM896.054-0.117h-768.047v192.012h768.047v-192.012z"  horiz-adv-x="1024" />

    
    <glyph glyph-name="tingzhi1" unicode="&#59274;" d="M510.407736-64.414823c-60.290131 0-118.797663 11.81714-173.898609 35.122939-53.199643 22.50148-100.970646 54.706973-141.983735 95.720062-41.013089 41.013089-73.218582 88.784092-95.720062 141.983735-23.305799 55.101969-35.122939 113.608477-35.122939 173.898609 0 60.290131 11.81714 118.797663 35.122939 173.898609 22.50148 53.200666 54.706973 100.970646 95.720062 141.983735 41.013089 41.014112 88.784092 73.218582 141.983735 95.721085 55.101969 23.305799 113.608477 35.122939 173.898609 35.122939s118.797663-11.81714 173.898609-35.122939c53.199643-22.502503 100.970646-54.706973 141.983735-95.721085 41.013089-41.013089 73.218582-88.784092 95.720062-141.983735 23.305799-55.100946 35.122939-113.608477 35.122939-173.898609 0-60.290131-11.81714-118.797663-35.122939-173.898609-22.50148-53.199643-54.706973-100.970646-95.720062-141.983735s-88.784092-73.218582-141.983735-95.720062C629.205399-52.597683 570.697867-64.414823 510.407736-64.414823zM510.407736 765.591905c-102.377692 0-198.627826-39.868009-271.0206-112.260783-72.39175-72.392774-112.260783-168.642908-112.260783-271.0206s39.868009-198.627826 112.260783-271.0206c72.392774-72.392774 168.642908-112.260783 271.0206-112.260783s198.62885 39.868009 271.0206 112.260783c72.392774 72.392774 112.260783 168.642908 112.260783 271.0206s-39.868009 198.627826-112.260783 271.0206C709.036585 725.723895 612.786451 765.591905 510.407736 765.591905zM348.904435 542.146856l323.007625 0 0-319.671647-323.007625 0 0 319.671647Z"  horiz-adv-x="1024" />

    
    <glyph glyph-name="caidan" unicode="&#58939;" d="M1181.715248 690.242297 0 690.242297 0 812l1181.715248 0L1181.715248 690.242297zM1181.715248 360.878852 0 360.878852l0-121.781643 1181.715248 0L1181.715248 360.878852zM1181.715248-90.242297 0-90.242297l0-121.757703 1181.715248 0L1181.715248-90.242297z"  horiz-adv-x="1182" />

    
    <glyph glyph-name="luxiang" unicode="&#59189;" d="M825.6 3.2 198.4 3.2C124.16 3.2 64 63.36 64 137.6L64 630.4C64 704.64 124.16 764.8 198.4 764.8L377.6 764.8 198.4 585.6l44.8 0 179.2 179.2L601.6 764.8 422.4 585.6l44.8 0 179.2 179.2L825.6 764.8 691.2 585.6l44.8 0 129.408 172.48C920.064 741.056 960 690.688 960 630.4l0-492.736C960 63.36 899.84 3.2 825.6 3.2zM870.4 540.8 153.6 540.8l0-345.28c0-56.768 48.128-102.72 107.52-102.72l501.76 0c59.392 0 107.52 46.016 107.52 102.72L870.4 540.8zM422.4 138.496 422.4 494.848l0.448 0.448L602.24 316.672l-179.456-178.624L422.4 138.496z"  horiz-adv-x="1024" />

    
    <glyph glyph-name="yuyin" unicode="&#59276;" d="M650.24 693.76C650.24 770.112 588.352 832 512 832 435.712 832 373.824 770.112 373.824 693.76l0-173.376 276.416 0L650.24 693.76zM512 163.968c76.416 0 138.304 61.888 138.304 138.24L650.304 481.792 373.824 481.792l0-179.52C373.824 225.856 435.712 163.968 512 163.968zM741.76 281.024 741.76 481.792l-58.88 0 0-200.768 0 0c-13.248-82.496-84.608-145.536-170.88-145.536-86.144 0-157.44 63.04-170.688 145.536L341.312 481.792 282.24 481.792l0-200.768c14.72-101.824 95.616-182.016 197.632-196.096l0-84.032L322.816 0.896 322.816-64l380.544 0 0 64.896L544.128 0.896l0 83.968C646.144 98.944 726.976 179.136 741.76 281.024z"  horiz-adv-x="1024" />

    
    <glyph glyph-name="dui" unicode="&#58884;" d="M362.839819 113.551564 139.102105 337.290301 64.522526 262.710722 362.839819-35.607594 959.477474 561.029038 884.897895 635.608617Z"  horiz-adv-x="1024" />

    
    <glyph glyph-name="shezhi05" unicode="&#59067;" d="M512 692c20.544 0 36.992-11.712 39.168-15.744C563.008 631.008 603.648 581.344 630.72 568.8c8.768-4.032 18.56-6.144 29.056-6.144 34.752 0 78.08 23.808 89.6 30.656 0 0 1.152 0.384 3.648 0.384 9.472 0 24.768-5.184 36.096-16.512 14.528-14.528 17.92-34.432 16.576-38.848-23.744-40.512-30.08-104.384-19.712-132.288 13.632-36.736 63.104-56.64 101.248-66.56C892.288 336.992 904 320.544 904 300c0-20.544-11.712-36.992-15.744-39.168-45.312-11.84-94.976-52.48-107.456-79.552-16.448-35.52 4.48-84.672 24.512-118.656 1.728-5.312-1.6-25.216-16.128-39.744-11.328-11.328-26.688-16.512-36.096-16.512-1.536 0-2.56 0.128-2.88 0.128-0.128 0-0.128 0-0.128-0.064-39.872 23.232-89.728 24.384-99.328 24.384-13.312 0-23.68-1.536-32.64-4.864-36.736-13.632-56.64-63.104-66.496-101.248C548.992-80.288 532.544-92 512-92s-36.992 11.712-39.168 15.744c-11.84 45.312-52.48 94.976-79.552 107.52-8.768 4.032-18.56 6.144-29.056 6.144-34.752 0-78.08-23.808-89.6-30.656 0 0-1.152-0.384-3.648-0.384-9.472 0-24.768 5.184-36.096 16.512-14.528 14.528-17.92 34.432-16.576 38.848 23.68 40.512 30.08 104.384 19.712 132.288-13.632 36.736-63.104 56.64-101.248 66.56C131.712 263.008 120 279.456 120 300c0 20.544 11.712 36.992 15.68 39.168 45.312 11.84 94.976 52.48 107.52 79.552C259.648 454.304 238.72 503.392 218.688 537.44 216.896 542.752 220.288 562.656 234.816 577.184c11.328 11.328 26.688 16.512 36.096 16.512 1.536 0 2.56-0.128 2.944-0.128 0.128 0 0.128 0 0.128 0.064 39.872-23.232 89.728-24.384 99.328-24.384 13.312 0 23.68 1.536 32.64 4.864 36.736 13.632 56.64 63.104 66.56 101.248C475.008 680.288 491.456 692 512 692M512 748C468.928 748 426.88 722.08 418.624 690.464 410.368 658.784 395.904 630.048 386.496 626.592c-2.368-0.896-7.04-1.344-13.184-1.344-18.496 0-50.176 4.48-71.36 16.896-8.768 5.12-19.52 7.616-31.04 7.616-25.408 0-54.72-11.904-75.712-32.896C164.736 586.336 153.344 538.272 169.92 510.048c16.512-28.224 26.624-58.752 22.464-67.776C188.16 433.184 153.216 401.632 121.536 393.376S64 343.072 64 300c0-43.072 25.92-85.12 57.536-93.376 31.68-8.256 60.416-22.72 63.872-32.128 3.456-9.408 1.024-56.32-15.552-84.544-16.512-28.224-5.12-76.288 25.344-106.752 20.992-20.992 50.304-32.896 75.712-32.896 11.52 0 22.208 2.432 31.04 7.616 23.936 14.016 49.472 23.424 62.208 23.424 2.304 0 4.16-0.32 5.568-0.96 9.024-4.16 40.64-39.168 48.896-70.848C426.88-122.08 468.928-148 512-148s85.12 25.92 93.376 57.536c8.256 31.68 22.72 60.416 32.128 63.872 2.368 0.896 7.04 1.344 13.184 1.344 18.496 0 50.176-4.48 71.36-16.896 8.768-5.12 19.52-7.616 31.04-7.616 25.408 0 54.72 11.904 75.712 32.896 30.464 30.464 41.856 78.464 25.344 106.752-16.512 28.224-26.624 58.752-22.464 67.776 4.16 9.024 39.168 40.64 70.848 48.896C934.08 214.88 960 256.928 960 300c0 43.072-25.92 85.12-57.536 93.376s-60.416 22.72-63.872 32.128c-3.456 9.408-1.024 56.32 15.552 84.544 16.512 28.224 5.12 76.288-25.344 106.752-20.992 20.992-50.304 32.896-75.712 32.896-11.52 0-22.208-2.432-31.04-7.616-23.936-14.016-49.472-23.424-62.208-23.424-2.304 0-4.16 0.32-5.568 0.96C645.184 623.84 613.632 658.784 605.376 690.464 597.12 722.08 555.072 748 512 748L512 748zM512 356c30.848 0 56-25.152 56-56S542.848 244 512 244 456 269.152 456 300 481.152 356 512 356M512 412C450.176 412 400 361.824 400 300S450.176 188 512 188 624 238.176 624 300 573.824 412 512 412L512 412z"  horiz-adv-x="1024" />

    
    <glyph glyph-name="zengjia" unicode="&#58904;" d="M166.547689 236.195835c-33.886785 0-61.367673 27.479865-61.367673 61.367673 0 33.886785 27.480888 61.366649 61.367673 61.366649l280.56293 0L447.110619 639.494111c0 33.888831 27.496238 61.367673 61.384046 61.367673 33.870412 0 61.368696-27.479865 61.368696-61.367673l0-280.56293 280.561907 0c33.886785 0 61.367673-27.479865 61.367673-61.366649 0-33.888831-27.479865-61.367673-61.367673-61.367673L569.863361 236.196859l0-280.561907c0-33.905204-27.498284-61.384046-61.368696-61.384046-33.887808 0-61.384046 27.479865-61.384046 61.384046L447.110619 236.195835 166.547689 236.195835z"  horiz-adv-x="1024" />

    
    <glyph glyph-name="xingrentubiao" unicode="&#58970;" d="M462.656 499.296c-50.368 0-98.944 30.72-120.576 81.408C313.6 647.712 342.848 724.448 407.36 751.904c64.512 27.52 140.032-4.736 168.576-71.616l0 0c28.416-66.944-0.832-143.68-65.28-171.136C495.04 502.496 478.72 499.296 462.656 499.296zM455.552 697.696c-7.808 0-15.616-1.472-23.104-4.672-32-13.632-46.144-52.736-31.488-87.168C415.616 571.36 453.632 554.464 485.568 567.968c32 13.632 46.08 52.736 31.488 87.168l0 0C505.792 681.568 480.96 697.696 455.552 697.696zM313.728-177.248c-15.616 0-32.576 2.752-50.688 8.256-30.848 9.28-50.048 38.528-52.608 80.256-2.496 41.984 8.384 89.792 34.368 150.528 15.36 36.032 35.264 69.44 59.072 99.456 11.264 14.272 26.688 32.64 45.248 48.576C352.96 213.152 357.248 216.16 361.6 219.168 364.8 221.408 369.6 224.736 370.752 226.336c0.256 1.344 0.128 8 0 12.48C370.56 261.92 369.6 278.944 368.704 295.968 367.872 310.56 367.104 325.088 366.72 339.68l-0.832 15.36C364.416 378.144 362.624 407.008 374.976 431.968 383.36 448.8 394.496 464.928 408.128 479.904c10.112 11.072 21.184 36.48 32.96 45.824C447.424 531.36 454.592 492 464.512 556L464.64 556l85.056 11.008 12.416-15.36c64.512-40.832 108.48-81.024 142.336-122.048 3.264-3.904 6.656-9.536 10.048-13.312 7.552-8.32 15.04-17.664 21.44-27.008 12.672-18.688 17.728-39.744 22.272-57.856l2.56-10.496c5.696-21.44 12.032-46.656 15.744-72.64 1.856-13.12 7.744-53.312-18.56-82.816-13.888-15.488-32-23.36-50.56-20.608-35.84 4.224-59.008 40.768-67.264 56.32L633.728 213.216C628.864 222.368 624 231.584 619.008 240.672L618.752 228.448C618.944 214.688 619.2 205.472 616.96 196.064c-8.512-35.264-34.88-62.4-37.888-65.344-11.52-11.52-24.96-20.736-36.864-28.864l-11.776-8.192c-6.592-4.736-13.312-9.152-19.968-13.44-13.184-8.512-24.512-15.808-33.28-25.728-8.576-9.6-15.552-23.936-22.272-37.824l-3.136-6.464c-11.776-23.744-22.464-48-32.832-72.32-6.272-14.656-12.416-29.44-18.496-44.16l-3.328-8.832c-7.36-19.84-18.496-49.728-55.936-58.944C332.608-176.16 323.456-177.248 313.728-177.248zM487.04 465.76 481.088 460.64c-9.216-7.36-17.792-15.232-25.6-23.808C445.632 426.016 438.08 415.136 432.256 403.424 427.584 393.952 428.8 374.688 429.824 359.136 430.208 352.864 430.592 346.784 430.72 341.152c0.32-13.888 1.088-27.776 1.856-41.664C433.536 281.376 434.56 263.392 434.688 245.28c0.384-18.304 0.896-38.272-11.84-56.128-7.616-10.624-17.088-17.216-24.704-22.528-2.56-1.728-5.056-3.456-7.36-5.376-14.4-12.352-26.688-27.072-36.8-39.808-20.224-25.536-37.184-54.08-50.304-84.8-21.632-50.56-31.232-90.304-29.312-121.472 0.896-14.4 4.8-22.144 7.168-22.848 17.792-5.44 33.6-6.848 44.416-4.16 3.328 0.832 4.864 1.984 11.2 19.072l4.096 10.688c6.144 15.104 12.416 30.272 18.88 45.312 10.816 25.344 22.016 50.56 34.24 75.392l3.008 6.144c8.192 16.96 17.536 36.032 31.936 52.224 14.528 16.448 31.488 27.456 46.464 37.056 5.696 3.776 11.52 7.424 17.216 11.584l13.12 9.152c9.664 6.656 19.712 13.248 27.776 21.312 4.48 4.608 27.904 20.032 31.488 35.072C565.568 212.512 576 217.376 576 220.576L576 230.432 567.552 312.8c0 11.904-5.376 28.736 6.272 42.304l7.808 12.16 17.664 0.32C611.52 366.688 622.08 359.52 629.632 347.936c3.84-7.104 6.272-10.944 8.96-14.848l5.568-8.384c16.832-26.112 31.424-53.696 46.144-81.472l6.336-11.968c4.864-9.216 10.944-16.448 15.296-20.224 2.816 6.016 3.136 15.296 1.216 28.032-3.136 22.08-8.576 43.776-14.272 65.28l-2.88 11.328c-3.456 14.144-6.72 27.52-12.992 36.672C678.4 359.264 672.768 365.28 667.2 371.424c-4.032 4.48-8.128 8.96-11.968 13.568C627.968 418.016 592.128 448.224 540.288 482.08L487.04 465.76zM697.92-171.744c-27.968 0-55.744 11.392-73.984 32.96-17.152 20.928-33.28 41.984-48.448 63.68-22.336 31.744-40.256 60.8-54.72 88.896-4.032 7.872-7.936 15.872-11.456 24l58.752 25.472c2.944-6.848 6.144-13.504 9.6-20.096 13.12-25.408 29.568-52.032 50.24-81.408 14.336-20.352 29.44-40.192 45.248-59.584 9.408-11.072 30.4-13.44 43.52-4.544 6.272 4.16 6.656 7.104 6.848 8.192 0.512 3.072 0.64 15.168-19.712 42.304l-118.528 158.08 51.264 38.4 118.464-158.08c25.792-34.368 36.096-64.256 31.616-91.264-2.368-14.144-10.176-34.432-34.112-50.624C736.192-166.432 716.992-171.744 697.92-171.744zM244.224 199.776c-13.056 0-26.048 2.56-37.312 8.832C189.248 218.464 178.624 235.552 177.024 256.864 173.376 304.992 201.408 338.016 222.848 358.688c16.832 16.256 33.472 26.048 48.128 34.624 13.632 8 25.472 14.976 36.992 26.56l45.44-45.056C336 357.344 318.656 347.104 303.36 338.144 290.112 330.336 278.656 323.616 267.264 312.608 247.232 293.28 239.552 278.496 240.832 261.6 241.92 262.688 256.128 263.968 265.536 268.896 275.904 274.272 287.36 285.408 298.496 296.224c5.888 5.76 11.712 11.392 17.472 16.448l42.112-48.192C353.152 260.128 348.16 255.328 343.104 250.4c-13.76-13.376-29.312-28.544-48-38.272C281.408 204.96 262.784 199.776 244.224 199.776z"  horiz-adv-x="1024" />

    
    <glyph glyph-name="zidingyi" unicode="&#59041;" d="M907.217227 188.704195c-1.834788-99.616812-51.670823-187.950649-136.270617-240.825904-58.658981-36.663014-123.234719-40.194444-189.889815-40.194444-57.437154 0-114.876354 0-172.314531 0-83.046415 0-157.333328 30.128181-215.21869 89.980337-98.235348 101.577466-74.988902 255.438717-74.988902 384.423393 0 71.101361 11.089569 134.763286 51.93279 195.151655 50.733475 75.002205 141.514037 118.157074 230.921323 118.157074 74.696236 0 149.391449 0 224.087685 0 155.704225 0 278.913361-127.536698 281.741779-281.017278 0.585331-31.714306 49.879014-31.766494 49.29266 0C953.151395 596.67284 808.373011 741.271122 625.853048 744.627567c-48.25298 0.880043-96.604198 0-144.865365 0-55.689347 0-110.851691 2.39249-165.453263-10.842952C157.576875 695.467937 69.240991 547.291153 69.240991 392.937692c0-121.018238-17.261129-254.174933 41.593304-364.701213 50.891064-95.571682 149.619646-154.293085 254.974136-167.904081 67.921949-8.775874 140.242068-1.880837 208.503754-1.880837 82.560344 0 158.397566 7.466042 230.608192 52.603055 95.305623 59.561537 149.552108 166.984129 151.58951 277.649578C957.095217 220.467619 907.802558 220.41236 907.217227 188.704195zM341.714685 77.927205c119.474069 0 238.951207 0 358.421182 0 66.48932 0 119.116935 77.973886 82.4662 138.281413-39.310308 64.684208-87.469144 132.715651-139.731438 187.701986-38.835494 40.863686-80.181157-26.163893-103.475699-52.892651-18.701944-21.457708-37.017078-43.283806-56.328913-64.189951-12.854772 12.322653-24.984021 25.435299-37.458123 38.126342-11.022031 11.210319-23.466458 26.044166-38.485523 32.891108-3.810792 2.51938-8.487302 3.852748-13.852496 3.354398-4.133134-0.070608-7.806803-1.237177-10.93505-3.173273-20.917402-9.449209-36.883025-34.459836-50.522674-50.936089-27.173896-32.824593-57.4392-65.868173-80.037894-102.027721C206.741621 133.006661 272.184099 77.927205 341.714685 77.927205zM347.016435 248.043674c10.525728 13.134135 21.166065 26.155706 31.999808 39.034015 5.239328 6.223748 10.67206 12.270465 16.178471 18.261922 0.240477 0.261966 0.967024 0.833995 1.893116 1.550309 12.482289-10.617825 28.829606-32.264844 37.360909-41.008996 12.387122-12.694113 25.774013-29.390377 43.167149-35.186384 31.503505-10.502192 75.530231 61.156872 91.153046 79.192643 15.167444 17.511839 30.334889 35.065634 46.435589 51.731198 7.283894-8.097422 13.894452-16.942881 20.580734-25.41074 22.330588-28.256554 43.180452-57.743122 64.198138-86.983073 25.058722-34.855856 71.894424-84.691891 18.720364-118.244055-22.310122-14.071484-73.667813-3.820002-97.668437-3.820002-61.34209 0-122.683157 0-184.0232 0-30.962176 0-146.143475-15.378246-149.908218 28.54922C284.434098 186.889873 328.826144 225.354929 347.016435 248.043674zM454.528054 506.040656c-5.511527 37.349653-34.145681 63.482847-73.097832 65.580624-41.677215 2.233877-71.869864-35.503609-73.938989-73.850985-2.24411-41.629119 35.543517-71.77572 73.938989-73.849962 38.558178-2.071172 67.281359 30.075992 73.002664 65.262376 0.756223 2.542916 1.105171 5.402033 0.933255 8.586562C455.530894 500.822818 455.218786 503.577558 454.528054 506.040656zM356.783893 497.770296c-1.714038 31.801287 47.583738 31.629371 49.287543 0C404.358421 465.992545 358.49793 465.992545 356.783893 497.770296z"  horiz-adv-x="1024" />

    
    <glyph glyph-name="shoucang4" unicode="&#59046;" d="M769.092891-63.821305c-5.339612 0-10.682293 1.342578-15.511275 4.02671L512.374018 74.003713 270.651698-58.960601c-10.712993-5.919826-23.89113-5.148253-33.872458 1.918699-10.009981 7.066953-15.095813 19.254529-13.114692 31.314193l46.859237 284.613176L74.164628 460.877925c-8.252964 8.506744-11.167341 20.918425-7.452739 32.178887 3.674693 11.289114 13.304004 19.6045 25.00858 21.620413l155.00633 26.581402c17.624403 2.942005 33.969673-8.731872 36.94647-26.13217 2.972705-17.399275-8.702196-33.939997-26.136264-36.947494L162.412508 461.869508l165.270091-170.004929c7.072069-7.297197 10.268878-17.497513 8.638751-27.478841l-38.800701-235.577367L497.051031 138.586614c9.625218 5.308913 21.334911 5.308913 30.930453-0.063445l199.084221-110.416785-38.001499 235.674581c-1.630127 10.009981 1.63115 20.211321 8.702196 27.444049L862.364181 459.403341l-225.566362 34.80469c-10.553357 1.630127-19.571754 8.408507-24.116257 18.072611L513.525238 724.572676l-100.019994-211.749682c-7.549953-15.993253-26.614148-22.807449-42.608423-15.257495-15.959483 7.549953-22.802332 26.610054-15.257495 42.60433L484.738611 813.493891c5.305843 11.195993 16.565281 18.327414 28.913517 18.327414l0.063445 0c12.411681-0.034792 23.672142-7.228635 28.918633-18.454304l120.743992-258.514775 270.218328-41.710984c11.871375-1.820462 21.689998-10.136871 25.491581-21.493523 3.778046-11.352559 0.864694-23.925922-7.482415-32.462343L754.763534 258.055566l45.898353-284.745183c1.951445-12.088316-3.196809-24.241101-13.207813-31.279401C781.982456-61.903629 775.556093-63.821305 769.092891-63.821305L769.092891-63.821305zM769.092891-63.821305"  horiz-adv-x="1024" />

    
    <glyph glyph-name="jinru2" unicode="&#59277;" d="M511.972 895.5c-218.106 0-404.299-136.562-477.843-328.821l79.097 0c21.456 46.774 51.28 89.855 88.754 127.331 82.806 82.811 192.897 128.419 309.992 128.419 117.111 0 227.216-45.608 310.031-128.421C904.82 611.195 950.429 501.1 950.429 384c0-117.108-45.608-227.209-128.422-310.018-82.813-82.807-192.922-128.411-310.035-128.411-117.099 0-227.19 45.604-309.994 128.409-37.477 37.477-67.301 80.562-88.761 127.341L34.125 201.321C107.666 9.05 293.862-127.5 511.976-127.5c282.498 0 511.524 228.999 511.524 511.5C1023.5 666.471 794.474 895.5 511.972 895.5zM399.796 228.991l51.669-51.669L658.143 384 451.465 590.678l-51.671-51.67 118.475-118.472L0.5 420.536l0-73.072 517.769 0L399.796 228.991z"  horiz-adv-x="1024" />

    
    <glyph glyph-name="yuanjiaojuxing11" unicode="&#58944;" d="M512-128C229.248-128 0 101.24800000000005 0 384 0 666.773333 229.248 896 512 896 794.773333 896 1024.021333 666.773333 1024.021333 384 1024.021333 101.24800000000005 794.773333-128 512-128ZM723.2 534.848C739.882667 551.509333 739.882667 578.517333 723.2 595.178667 706.538667 611.8613330000001 679.530667 611.8613330000001 662.869333 595.178667L512.021333 444.330667 361.173333 595.178667C344.512 611.8613330000001 317.504 611.8613330000001 300.842667 595.178667 284.16 578.517333 284.16 551.509333 300.842667 534.848L451.690667 384 300.842667 233.15200000000004C284.16 216.49066700000003 284.16 189.482667 300.842667 172.82133299999998 317.504 156.13866700000005 344.512 156.13866700000005 361.173333 172.82133299999998L512.021333 323.66933300000005 662.869333 172.82133299999998C679.530667 156.13866700000005 706.538667 156.13866700000005 723.2 172.82133299999998 739.882667 189.482667 739.882667 216.49066700000003 723.2 233.15200000000004L572.352 384 723.2 534.848Z"  horiz-adv-x="1025" />

    
    <glyph glyph-name="jianshiqicai01" unicode="&#59278;" d="M122.257973 190.329069c6.478552 1.74883 129.905652 42.611493 129.905652 42.611493s-11.851932 37.409005-13.33061 44.49233c-1.812275 8.287757-4.875031 8.495488-7.248078 8.830109l-0.644683 0-127.199007 1.122567C103.742271 287.384545 117.989763 214.820879 122.257973 190.329069zM423.536714 233.8994c0 0-289.63454-120.054283-296.840662-122.386398-2.874467-18.575054-16.579607-76.812433-16.579607-76.812433l123.218346 0c0 0 10.478655-0.167822 12.518105 8.120958 8.206916 33.825386 13.81054 64.484663 14.184047 65.649186 0.874927 3.042289 2.687202 7.581676 8.061606 10.29139 2.832512 1.49812 212.798571 107.890242 212.798571 107.890242s0 21.118993 0 36.112476l-57.360406 0L423.536714 233.8994zM186.84599 510.954437c0 12.95301-0.061398 21.783119-0.165776 27.656897-20.329001 10.080589-84.915995 43.395346-99.03762 50.352805-0.082888-13.028735-0.146333-27.525913-0.146333-27.525913l0-0.124843c-0.082888-0.333598-0.082888-0.74906-0.082888-1.164522 0-4.500501 0.99977-13.831007 6.14393-16.787338 7.019881-4.041036 78.45791-41.992393 93.476975-50.154283-0.188288 2.541893-0.188288 5.164626-0.188288 7.873318 0 0.165776 0 0.289596 0 0.415462C186.84599 504.954793 186.84599 507.95308 186.84599 510.954437zM957.003632 512.827087c-0.231267 1.083681-1.706875 2.289136-4.080945 3.582595-10.353812 0.415462-57.113789 2.665713-107.497293 5.123694-2.059915-39.116903-5.746888-105.72288-6.642281-110.262266-0.540306-2.666736-6.538927-14.455223-14.745842-29.410843 2.124384-1.459235 4.02057-2.622734 5.376451-3.455705 4.828982-2.752694 14.034645-4.125971 18.160615 0.539282 2.6432 3.167133 17.786085 21.038152 35.300994 41.906435 24.933879 29.701462 53.15564 63.276139 59.882855 70.89977l5.039783 5.581112c6.934946 7.665587 9.457396 10.787694 9.457396 13.953803C957.254342 511.785362 957.189873 512.284735 957.003632 512.827087zM397.688 343.78816c-12.580526-19.703761-29.429263-30.658254-47.653323-30.658254-8.580422 0-16.872273 2.538823-24.433482 7.209192 0-12.623505 0-23.704888 0-27.746948 11.268648 0 143.9229 0 155.294902 0 0 3.001357 0 10.082636 0 18.912745-23.284309 11.82942-50.569746 25.701358-78.812997 40.11565C400.645354 348.911854 399.272078 346.288097 397.688 343.78816zM386.85835 350.57882c1.352811 2.167363 2.687202 4.455475 3.872191 6.831592-32.239262 16.412808-65.045435 33.115212-93.641727 47.610344 2.707668-44.403303 25.430182-79.104639 52.945863-79.104639C363.759259 325.916117 376.755248 334.58352 386.85835 350.57882zM513.991866 377.195014l-2.439562 1.333368c-5.119601 2.167363-192.281281 94.516654-312.043922 153.710824 0.042979-5.332449 0.042979-12.247952 0.042979-21.078061 0-3.042289 0-6.206352 0-9.665127 0-0.125867 0-0.249687 0-0.415462 0-34.325783 11.269671-38.947034 17.349133-41.407062 8.04114-3.331885 263.74387-133.757376 302.464753-153.503093-0.063445 0.918929-0.063445 2.044566-0.063445 3.1262l1.729387 64.651462C518.261099 374.862899 515.823584 376.19729 513.991866 377.195014zM549.877167 407.353894c14.059204 18.163685 79.104639 93.39204 82.523505 97.477079 2.037403 2.622734 30.845519 38.446637 80.269162 35.948747 34.780131-1.7519 150.733003-7.416923 209.009268-10.123568-7.956206 3.540639-14.685467 6.496971-14.685467 6.496971l-85.789898 38.0762-26.492374 11.651364-51.343365 22.724561c-29.968545 13.390985-60.98291 27.158547-91.580788 40.448224l-55.776328 24.762987c-26.720571 11.997242-54.256718 24.328082-81.603553 35.846416-12.310374 5.081739-56.005548 25.095561-67.834968 30.490431-24.600281 11.059893-50.009997 22.537296-76.397994 30.804586-6.813173 2.12643-37.950334 8.144494-45.593408 8.581446l-74.231655 3.665483c-43.217291 2.103918-92.185562 4.561899-103.015212 5.208629-33.323966 2.060939-49.215912-0.023536-54.798047-18.226107-3.103688-10.1645-19.016099-92.163049-24.682146-114.054639-1.435699-5.331425-2.082428-9.706059-2.082428-13.267165 0-12.392238 7.373944-15.829524 16.1007-19.891026l3.874237-1.854231c3.331885-1.687432 432.513668-212.601072 441.178001-216.6022-0.082888 0-0.122797 0.084934-0.122797 0.084934l0.122797-0.084934 0 0 3.478218-1.74883C536.08914 400.60519 540.653085 398.148231 549.877167 407.353894zM711.981149 528.032394c-43.300178 2.248204-69.419046-30.78412-69.669756-31.117718l-0.145309-0.165776c-0.788969-0.916882-79.561034-95.891977-92.850711-112.931049l-0.185218-0.333598-0.273223-0.249687c-5.498224-5.580089-10.558473-8.497535-15.141862-9.745968-0.564865-24.158213-1.666966-64.48364-1.666966-64.48364 0-0.332575-0.060375-0.665149-0.060375-0.873903 0-8.830109 3.540639-13.833053 20.283975-15.08251 10.038634-0.788969 169.249729-5.372358 181.286879-5.205559 10.038634 0.167822 17.84953 0.958838 26.596751 11.206226 10.41521 12.20395 63.005986 106.637716 66.193585 114.968451 0.771573 5.499248 3.851725 60.903092 6.351662 108.180861C783.256472 524.575666 732.956879 526.906757 711.981149 528.032394zM758.740102 448.343447c-4.121877-12.536524-21.929452-74.229608-21.929452-74.229608s-2.27174-10.829649-7.81192-14.328333c-5.434779-3.793396-15.994276-2.793626-15.994276-2.793626-10.334369 0.418532-20.767999 0.876973-31.078833 1.292436-17.057491 0.543376-58.44204 2.248204-62.064544 2.334161-3.794419 0-11.686157 1.791809-13.32754 5.953595-2.188852 5.373381-0.064468 12.041244 1.413186 17.371646 2.022053 7.16519 4.27128 14.290471 6.288217 21.453614 4.29277 15.037485 8.604982 29.950126 13.248745 44.905746 2.206248 7.4159 2.791579 14.870686 9.333576 20.329001 6.846942 5.872754 15.431457 5.079692 23.73968 4.954849 8.019651-0.164752 16.099676-0.249687 24.099884-0.499373 16.911158-0.583285 33.867342-1.3743 50.821479-2.124384 5.100158-0.292666 10.163477-0.499373 15.287171-0.792039C764.427638 471.464027 762.845607 460.966952 758.740102 448.343447zM325.601194 262.764821c0-12.94994 0-19.948331 0-19.948331l-220.462111-75.81778-1.166569 6.791683c-7.248078 40.697911-18.22406 105.054661-20.037359 113.681132L63.836399 287.471526c0-31.033807 0-225.028103 0-252.769934l24.119327 0c2.686179 16.786315 16.807804 78.355579 16.953114 79.310324l0.626263 3.790326c0 0 296.777217 122.428354 305.338197 125.217886 0 5.541203 0 8.207939 0 19.744693L325.601194 262.764821z"  horiz-adv-x="1024" />

    
    <glyph glyph-name="ip" unicode="&#59279;" d="M512 832C264.576 832 64 631.423 64 384s200.576-448 448-448 448 200.576 448 448S759.424 832 512 832zM512 0c-212.078 0-384 171.923-384 384 0 212.077 171.922 384 384 384 212.077 0 384-171.923 384-384C896 171.923 724.077 0 512 0zM352 640c-17.673 0-32-14.327-32-32l0-448c0-17.674 14.327-32 32-32s32 14.326 32 32L384 608C384 625.673 369.673 640 352 640zM608 640 480 640c-17.673 0-32-14.326-32-32l0-448c0-17.674 14.327-32 32-32s32 14.326 32 32L512 320l96 0c88.366 0 160 71.635 160 160C768 568.366 696.366 640 608 640zM608 384l-96 0L512 576l96 0c53.02 0 96-42.98 96-96S661.02 384 608 384z"  horiz-adv-x="1024" />

    
    <glyph glyph-name="wodecheku" unicode="&#58922;" d="M612.573091 139.992773c-20.060895 0.711198-76.727499 4.399193-101.588723 4.399193-25.181519 0-96.142687-3.367701-109.472274-4.399193-13.06148-1.494027-17.292851-10.858302-18.821671-18.241456-1.198292-7.485485-1.799996-29.890774-1.469468-40.328497 0.271176-10.82044 80.063477-25.695219 129.800251-25.695219 49.711192 0 131.266649 8.904811 131.86733 27.503401 0.63138 18.597567 2.13257 36.921911-3.897773 42.919509C633.194758 132.112292 632.86116 139.246783 612.573091 139.992773L612.573091 139.992773zM318.71946 162.599653c-24.288173 6.005784-38.515199 7.843642-55.504128 14.201443-17.258059 5.962805-45.74588 5.962805-33.951253-27.541263 11.528568-33.505092 7.865131-22.618137 14.859429-35.251875 6.961552-12.670577 19.992333-9.368368 30.317493-9.368368l78.259388 0c0 0-1.497097 24.107047-3.599991 35.317367C346.64037 151.143741 343.00354 156.674711 318.71946 162.599653L318.71946 162.599653zM768.127913 167.143133c-16.993023-5.960759-36.111452-7.484462-60.305481-13.449313-24.050766-5.929036-27.951609-11.819187-30.082132-22.966061-2.101871-11.214413-3.632737-35.319413-3.632737-35.319413l82.760912 0c10.363022 0 23.02132-3.727904 30.014594 9.30083 6.996344 12.675694 3.66139 1.816369 15.190981 35.32453 11.860119 33.465183-16.989953 33.465183-33.946137 27.117614L768.127913 167.143133zM305.51267 240.410833l419.146219 0c17.891486 0 19.119453 4.859681 7.631818 18.237363-11.562337 13.416568-73.940013 80.897472-78.171384 85.688591-4.232394 5.212722-14.859429 9.299807-22.75219 9.299807L395.406027 353.636594c-8.16189 0-16.392342-0.74599-26.383904-13.767562-9.994632-13.027711-65.968457-74.903967-75.064626-85.687568-9.029654-11.145851-3.597945-13.770632 11.55722-13.770632L305.51267 240.410833zM831.225997 231.10591c-12.756535 0.744967-23.653723 1.916653-32.114418 2.625804 13.293771-16.005532 24.51944-30.915104 24.51944-75.530231L823.631018-40.53993c0-15.649422-12.398378-40.571021-25.189705-40.571021l-82.314751 0c-9.43386 0-15.158235 6.675026-15.158235 18.24248l0 36.134988L328.607668-26.733483l0-31.696909c0-8.905834-9.735735-21.543665-22.754237-21.543665l-67.188238 0c-12.466939 0-28.221762 18.565844-28.221762 41.313941L210.443431 158.238322c0 28.681226 6.994298 57.255005 17.891486 68.471464l6.365988 7.060813c-8.227382-1.134847-18.788925-1.879813-30.621415-2.619664-28.816303-1.49505-19.421328 23.458271-15.188934 36.449143 4.226255 13.386892 13.05841 14.160511 22.784936 13.81054 9.69685 0 15.156188-1.49505 26.38902-4.474918 10.29139-2.944052 15.454994-5.217838 24.249287-12.283768 35.45142 39.828101 86.088704 96.759741 94.02035 103.823624 12.091386 10.081613 12.091386 13.416568 26.356274 13.416568l252.603135 0c16.756639 0 27.886117 2.625804 37.647435-8.946766 7.596002-8.90788 66.034972-71.801303 99.416244-108.680235 9.392928 7.030114 14.259772 9.656941 24.852014 12.634762 11.255345 3.019777 16.724917 4.474918 26.41665 4.474918 9.660011 0.385786 18.489096-0.414439 22.725584-13.808494 4.227278-12.988826 13.658068-37.940101-15.131629-36.45119L831.225997 231.10591zM831.225997 231.10591M892.963083-85.594055 964.60168-85.594055 964.770526 480.863231 512.616542 685.157103 64.091202 483.854355 64.091202-82.491391 129.576659-82.491391 129.576659 411.710244 513.30932 580.772708 892.57832 415.748211Z"  horiz-adv-x="1024" />

    
    <glyph glyph-name="p-checknum" unicode="&#59005;" d="M803-33.028h-684.68v744.219h418.253l60.195 57.994-1.545 1.545h-476.902c-32.879 0-59.539-26.659-59.539-59.539v-744.219c0-32.88 26.661-59.535 59.539-59.535h684.68c32.88 0 59.539 26.655 59.539 59.535l-0 435.977-59.539-56.839 0-379.138h-0.001zM1012.574 728.625c-0.552 32.546-16.398 63.901-46.895 93.126-26.858 25.761-56.511 38.812-88.141 38.812-49.507 0-85.617-31.979-95.442-41.758-13.922-13.754-408.551-407.796-408.551-407.796-3.098-3.154-5.361-7.005-6.505-11.293-10.689-39.509-64.265-214.876-64.791-216.624-2.758-8.984-0.287-18.777 6.323-25.318 4.756-4.772 11.095-7.296 17.59-7.296 2.56 0 5.132 0.375 7.66 1.16 1.815 0.614 182.798 59.135 212.582 68.028 3.923 1.16 7.499 3.284 10.434 6.161 18.796 18.547 381.515 375.64 410.877 405.964 30.35 31.307 45.441 63.865 44.86 96.832v0zM924.951 673.201c-16.568-17.095-146.287-145.267-385.553-380.974l-18.313-18.053c-27.431-8.487-93.117-29.596-142.769-45.614 15.987 52.794 35.174 116.571 43.719 146.733 51.141 51.067 389.218 388.64 402.067 401.313 2.503 2.498 25.324 24.422 53.435 24.422 15.956 0 31.34-7.286 46.947-22.258 18.666-17.908 28.288-35.118 28.548-51.193 0.292-16.542-9.153-34.824-28.082-54.376v0zM924.951 673.201z"  horiz-adv-x="1024" />

    
    <glyph glyph-name="shujuzidian1" unicode="&#59008;" d="M234.9 832C105.1 832 0 726.9 0 597.1l0-426.3c0-5.5 0.2-11 0.6-16.5 0-0.1 0-0.2 0-0.2 0.1-1.8 0.3-3.6 0.4-5.4 0-0.1 0-0.3 0-0.4 0.2-1.7 0.4-3.5 0.6-5.2 0-0.2 0-0.4 0.1-0.6 0.2-1.7 0.4-3.4 0.7-5.1 0-0.2 0.1-0.5 0.1-0.7 0.2-1.7 0.5-3.3 0.8-4.9 0-0.3 0.1-0.5 0.1-0.8 0.3-1.6 0.6-3.2 0.9-4.8 0.1-0.3 0.1-0.6 0.2-0.8 0.3-1.6 0.6-3.2 1-4.7 0.1-0.3 0.1-0.6 0.2-0.9 0.3-1.6 0.7-3.1 1.1-4.6 0.1-0.3 0.1-0.6 0.2-0.9 0.4-1.5 0.8-3 1.2-4.6 0.1-0.3 0.2-0.6 0.3-0.9 0.4-1.5 0.8-3 1.3-4.5 0.1-0.3 0.2-0.6 0.3-1 0.4-1.5 0.9-3 1.4-4.4 0.1-0.3 0.2-0.6 0.3-1 0.5-1.5 1-2.9 1.5-4.4 0.1-0.3 0.2-0.6 0.3-1 0.5-1.4 1-2.9 1.6-4.3 0.1-0.3 0.2-0.6 0.4-1 0.5-1.4 1.1-2.8 1.7-4.3 0.1-0.3 0.3-0.6 0.4-0.9 0.6-1.4 1.2-2.8 1.8-4.2 0.1-0.3 0.3-0.6 0.4-0.9 0.6-1.4 1.2-2.8 1.9-4.2 0.1-0.3 0.3-0.6 0.4-0.9 0.6-1.4 1.3-2.8 2-4.2 0.1-0.3 0.3-0.6 0.4-0.8 0.7-1.4 1.4-2.8 2.1-4.1 0.1-0.3 0.3-0.5 0.4-0.8 0.7-1.4 1.5-2.8 2.2-4.1 0.1-0.2 0.3-0.5 0.4-0.7 0.8-1.4 1.6-2.8 2.3-4.1 0.1-0.2 0.2-0.4 0.4-0.6 0.8-1.4 1.6-2.8 2.5-4.2 0.1-0.2 0.2-0.3 0.3-0.5 0.9-1.4 1.8-2.8 2.7-4.2 0.1-0.1 0.1-0.2 0.2-0.3 0.9-1.5 1.9-2.9 2.9-4.3 0 0 0 0 0-0.1 9.2-13.5 19.8-26.1 31.6-37.4 0.1-0.1 0.1-0.1 0.2-0.2 1.1-1.1 2.2-2.1 3.4-3.1 0.2-0.2 0.5-0.4 0.7-0.7 1-0.9 2.1-1.9 3.1-2.8 0.3-0.3 0.7-0.6 1-0.9 1-0.9 2-1.7 3-2.5 0.4-0.4 0.8-0.7 1.3-1.1 1-0.8 1.9-1.6 2.9-2.4 0.5-0.4 1-0.8 1.4-1.2 0.9-0.7 1.9-1.5 2.8-2.2 0.5-0.4 1.1-0.8 1.6-1.2 0.9-0.7 1.8-1.4 2.8-2 0.6-0.4 1.1-0.8 1.7-1.3 0.9-0.6 1.8-1.3 2.7-1.9 0.6-0.4 1.2-0.9 1.8-1.3 0.9-0.6 1.8-1.2 2.7-1.8 0.6-0.4 1.3-0.9 1.9-1.3 0.9-0.6 1.8-1.1 2.7-1.7 0.7-0.4 1.4-0.9 2-1.3 0.9-0.5 1.8-1.1 2.7-1.6 0.7-0.4 1.4-0.8 2.1-1.3 0.9-0.5 1.8-1 2.7-1.5 0.7-0.4 1.5-0.8 2.2-1.2 0.9-0.5 1.8-1 2.7-1.5 0.8-0.4 1.5-0.8 2.3-1.2 0.9-0.5 1.8-0.9 2.7-1.4 0.8-0.4 1.6-0.8 2.3-1.2 0.9-0.4 1.8-0.9 2.7-1.3 0.8-0.4 1.6-0.8 2.4-1.1 0.9-0.4 1.8-0.8 2.7-1.2 0.8-0.4 1.6-0.7 2.5-1.1 0.9-0.4 1.8-0.8 2.7-1.1 0.8-0.4 1.7-0.7 2.5-1 0.9-0.4 1.8-0.7 2.7-1.1 0.9-0.3 1.7-0.7 2.6-1 0.9-0.3 1.8-0.7 2.7-1 0.9-0.3 1.8-0.6 2.6-0.9 0.9-0.3 1.8-0.6 2.7-0.9 0.9-0.3 1.8-0.6 2.7-0.9 0.9-0.3 1.8-0.6 2.7-0.9 0.9-0.3 1.8-0.6 2.8-0.8 0.9-0.3 1.8-0.5 2.7-0.8 0.9-0.3 1.9-0.5 2.8-0.8 0.9-0.2 1.8-0.5 2.7-0.7 1-0.2 1.9-0.5 2.9-0.7 0.9-0.2 1.8-0.4 2.7-0.6 1-0.2 1.9-0.4 2.9-0.6 0.9-0.2 1.8-0.4 2.7-0.6 1-0.2 2-0.4 3-0.6 0.9-0.2 1.8-0.3 2.7-0.5 1-0.2 2-0.3 3-0.5 0.9-0.1 1.8-0.3 2.7-0.4 1-0.2 2.1-0.3 3.1-0.4 0.9-0.1 1.8-0.2 2.7-0.4 1.1-0.1 2.1-0.2 3.2-0.4 0.9-0.1 1.7-0.2 2.6-0.3 1.1-0.1 2.2-0.2 3.3-0.3 0.8-0.1 1.7-0.2 2.5-0.2 1.2-0.1 2.4-0.2 3.5-0.2 0.8 0 1.6-0.1 2.4-0.1 1.3-0.1 2.7-0.1 4-0.2 0.7 0 1.3-0.1 2-0.1 2 0 4-0.1 6-0.1L1024-64.2 1024 384 1024 832 234.9 832zM960 0 234.9 0c-1.4 0-2.8 0-4.2 0.1-0.8 0-1.6 0.1-2.4 0.1-0.6 0-1.2 0-1.8 0.1-1.1 0.1-2.2 0.1-3.3 0.2-0.3 0-0.5 0-0.8 0-1.3 0.1-2.7 0.2-4 0.3 0 0-0.1 0-0.1 0-38.1 3.6-73.7 19.9-101.7 46.7C85.5 77.3 67 117.2 64.4 160c0 0 0 0 0 0 2.7 42.8 21.2 82.7 52.3 112.5 31.9 30.6 73.9 47.5 118.2 47.5L960 320 960 0zM234.9 384c-67.3 0-128-28.3-170.9-73.7L64 597.1c0 45.6 17.8 88.5 50 120.8 32.3 32.3 75.2 50 120.8 50L960 767.9l0-384L234.9 383.9z"  horiz-adv-x="1024" />

    
    <glyph glyph-name="xuanze" unicode="&#59280;" d="M187.5 708.4l693.1-230.7L696 380.6l-76.9-40.5 61.5-61.4L885 74.6l-63.4-63.6-204.2 204.5-61.5 61.6-40.5-77-96.8-184.3L187.5 708.4M155.9 784.1c-4.5 0-9.2-0.7-13.9-2.1-23-7.4-35.4-32-28-55.6l258.4-774.5c3.1-10.8 10.6-20.8 21.4-26.7 6.6-3.6 13.6-5.3 20.6-5.3 15.7 0 30.9 8.7 38.4 23.3l119.2 227 216.4-216.8 2.5-2.2c8.4-8.4 19.6-12.6 30.8-12.6s22.4 4.2 30.7 12.6l92.2 92.5c17.1 17.1 17.1 44.4 0 61.5l-218.9 218.6 226.7 119.2c10 5.6 17.4 13.6 21.1 25.2 7.8 23-5 47.5-27.3 54.9L169 782C164.8 783.4 160.4 784.1 155.9 784.1L155.9 784.1z"  horiz-adv-x="1024" />

    
    <glyph glyph-name="guanyu" unicode="&#59338;" d="M622.763175 720.965521c0-61.186548-49.578162-110.76471-110.763686-110.76471-61.153802 0-110.731964 49.578162-110.731964 110.76471 0 61.152778 49.578162 110.73094 110.731964 110.73094C573.185013 831.696462 622.763175 782.1183 622.763175 720.965521zM622.763175-63.696462 401.235802-63.696462 434.811502 546.293293 589.187475 546.293293Z"  horiz-adv-x="1024" />

    
    <glyph glyph-name="zhuashou1" unicode="&#59377;" d="M889.482819 679.566646c-65.022922 7.503904-105.305371-44.597731-129.953747-104.21555 5.002944 81.965803-8.591679 168.550811-70.28681 187.648774-45.5228 14.09195-70.348208-27.576055-83.695191-83.680864-7.789407 65.988924-32.849152 122.44268-95.327112 124.713396C357.269451 809.588955 401.364739 618.393401 401.364739 618.393401c-27.831882 66.747193-75.090209 196.068538-187.691753 125.150348-109.278869-68.832691 42.009789-292.016797 42.009789-292.016797S121.862977 503.671567 78.060355 432.753377C-15.965112 280.503834 402.766668-32.387385 402.766668-32.387385c66.747193-16.687054 9.027607 77.175707 9.027607 77.175707C-18.604218 439.711859 154.617985 417.550117 199.038684 397.294794c56.644091-25.812899 276.178063-208.30728 123.06485 47.973618-191.896518 321.218886 14.601556 264.901229 50.091862 111.934349 19.034519-82.09781 66.226331-114.329908 79.360466-116.904547 20.304442-3.975545 33.731242 14.795984 23.529903 66.844407-27.962865 142.553717-29.560246 193.819311-0.12996 215.932957 28.41926 21.347191 87.507006 17.485233 83.563184-65.75254-15.31787-322.603419 66.551742-237.002832 70.201875-203.711612 7.072069 64.530712-17.891486 245.135046 50.060139 241.956657 91.711771-4.269233-20.141736-333.049329 52.178383-316.362274s38.132482 279.078113 152.950508 228.057089c50.060139-22.243607 13.036921-150.098553-38.880519-283.657408-41.587164-106.915032-93.765547-222.777853-133.787052-287.666722-48.626487-78.80481-17.273409-108.495016 46.181809-8.718569C1020.206092 440.396451 983.442794 668.729833 889.482819 679.566646z"  horiz-adv-x="1024" />

    
    <glyph glyph-name="kuaiyunfanghu" unicode="&#58912;" d="M983.270367 229.391736C961.876104 83.796754 809.531394 83.94718 809.531394 83.94718L207.402677 83.94718c0 0-163.696246 1.539053-167.147858 154.591891 0 153.266709 153.901159 182.469821 153.901159 182.469821s-12.234649 76.507488 57.042157 118.309546c77.43358 43.787272 134.497227-9.828856 134.497227-9.828856s57.656141 172.019819 247.159146 153.11219C853.940836 655.731798 836.024791 420.014238 836.024791 420.014238S993.459427 388.628414 983.270367 229.391736zM736.489844 487.901395 709.001793 487.901395c-9.682523-27.38879-35.80753-47.02092-66.502623-47.02092-30.691 0-56.819077 19.632129-66.49853 47.02092l-54.984289 0c-9.674337-27.38879-35.802414-47.02092-66.502623-47.02092-30.691 0-56.814983 19.632129-66.493413 47.02092l-27.492144 0 0-141.05355c0-94.037746 93.985558-235.091296 187.984419-235.091296 93.985558 0 187.976232 141.05355 187.976232 235.091296L736.488821 487.901395z"  horiz-adv-x="1024" />

    
    <glyph glyph-name="prepare-model" unicode="&#59281;" d="M363.7 14.9h297.3v82.4h-297.3v-82.4zM907.4 768.8h-791.3c-28.9 0-52.6-23.7-52.6-52.6v-490.7c0-28.9 23.7-52.6 52.6-52.6h791.2c28.9 0 52.6 23.7 52.6 52.6l-0 490.6c0.1 29-23.6 52.7-52.5 52.7v0 0zM590.8 225.5h-151.6v52.6h151.6v-52.6zM907.4 330.8h-791.3v385.3h791.2l-0-385.3h0.1zM696.1 607.1l-33.2 33.2-189.6-189.4-112.6 112.6-33.3-33.3 145.8-145.8 222.9 222.7zM696.1 607.1z"  horiz-adv-x="1024" />

    
    <glyph glyph-name="jiediankaishi" unicode="&#59174;" d="M195.4 806.4l677.7-383c30.6-17.3 30.6-61.4 0-78.6l-677.7-383c-30.1-17-67.4 4.7-67.4 39.3L128 767C128 801.6 165.3 823.4 195.4 806.4z"  horiz-adv-x="1024" />

    
    <glyph glyph-name="iconfontfanghudun" unicode="&#58920;" d="M499.825778-124.472889C501.76-124.965926 503.751111-125.212444 505.742222-125.212444 507.828148-125.212444 509.914074-124.946963 511.924148-124.416 575.089778-107.747556 769.137778 39.424 874.68563 304.715852 926.416593 434.688 939.747556 581.366519 941.795556 681.547852 942.26963 705.839407 923.496296 736.06637 901.613037 746.230519 784.365037 800.692148 569.135407 892.946963 506.121481 893.155556 443.240296 892.909037 227.081481 800.388741 109.264593 745.756444 84.536889 734.302815 68.266667 708.171852 68.816593 680.751407 70.807704 581.271704 84.024889 435.294815 135.755852 304.810667 247.902815 22.072889 444.643556-110.573037 499.825778-124.472889L499.825778-124.472889ZM117.304889 681.718519C117.115259 691.048296 123.373037 698.861037 129.668741 701.781333 305.038222 783.075556 466.944 844.515556 506.121481 844.667259 545.46963 844.534519 706.673778 783.303111 881.133037 702.27437 885.532444 699.979852 893.421037 687.976296 893.307259 682.552889 891.335111 586.410667 878.667852 445.914074 829.648593 322.711704 731.306667 75.548444 554.761481-55.466667 505.514667-75.45363 454.030222-56.092444 282.472296 66.465185 180.868741 322.730667 131.77363 446.445037 119.201185 586.221037 117.304889 681.718519L117.304889 681.718519Z"  horiz-adv-x="1024" />

    
    <glyph glyph-name="tingyong" unicode="&#59283;" d="M512-127.218917C229.661486-127.218917 0.781083 101.661486 0.781083 384 0.781083 666.338514 229.661486 895.218917 512 895.218917 794.338514 895.218917 1023.218917 666.338514 1023.218917 384 1023.218917 101.661486 794.338514-127.218917 512-127.218917ZM511.804729 833.122807C264.084601 833.122807 63.267735 632.130978 63.267735 384.195271 63.267735 273.463847 103.326755 172.098783 169.727024 93.817849L801.047628 727.322362C722.956107 793.332479 622.023371 833.122807 511.804729 833.122807ZM845.861492 683.768775 213.353641 49.073111C292.639829-21.710206 397.201086-64.732265 511.804729-64.732265 759.524857-64.732265 960.341724 136.259564 960.341724 384.195271 960.341724 499.3156 917.041989 604.309968 845.861492 683.768775Z"  horiz-adv-x="1024" />

    
    <glyph glyph-name="paizhao" unicode="&#59187;" d="M846.560427 668.670833 762.801867 668.670833l-27.919179 55.636757c-16.464763 32.373844-25.008756 42.335185-55.837334 42.335185L344.01316 766.642775c-30.851092 0-41.029383-13.251428-55.838358-42.335185l-27.919179-55.636757-83.759583 0c-61.677623 0-111.677739-49.798515-111.677739-111.252023l0-445.078704c0-61.453508 50.000116-111.273514 111.677739-111.273514l670.065411 0c61.678646 0 111.676716 49.818982 111.676716 111.273514L958.238166 557.41881C958.238166 618.872318 908.239073 668.670833 846.560427 668.670833zM902.399808 105.688296c0-30.738523-25.00978-55.636757-55.838358-55.636757L176.493993 50.05154c-30.850068 0-55.837334 24.898234-55.837334 55.636757L120.656658 550.767001c0 30.714986 24.988289 55.63471 55.837334 55.63471l111.677739 0 27.919179 55.617313c19.73029 32.371798 24.988289 55.638804 55.837334 55.638804l279.195883 0c30.828578 0 36.084531-23.267006 55.837334-55.638804l27.918156-55.617313 111.678762 0c30.828578 0 55.838358-24.921771 55.838358-55.63471l0-445.078704L902.399808 105.688296zM511.528233 572.409942c-123.35627 0-223.356501-99.645128-223.356501-222.553168 0-122.884503 100.000232-222.525537 223.356501-222.525537S734.883711 226.972271 734.883711 349.856774C734.883711 472.764814 634.884503 572.409942 511.528233 572.409942zM511.528233 182.970041c-92.528715 0-167.515074 74.719263-167.515074 166.88878 0 92.171564 74.986359 166.912317 167.515074 166.912317 92.506201 0 167.515074-74.740753 167.515074-166.912317C679.04433 257.68828 604.035458 182.970041 511.528233 182.970041z"  horiz-adv-x="1025" />

    
    <glyph glyph-name="kaishi" unicode="&#59285;" d="M212.992 369.664 212.992 369.664 212.992 369.664 215.04 369.664 212.992 369.664ZM817.152 693.248 817.152 693.248C737.28 773.12 628.736 820.224 509.952 820.224c-118.784 0-229.376-49.152-307.2-126.976l0 0c-77.824-77.824-126.976-186.368-126.976-307.2 0-118.784 49.152-229.376 126.976-307.2 77.824-79.872 188.416-126.976 307.2-126.976 120.832 0 229.376 49.152 307.2 126.976 79.872 77.824 126.976 186.368 126.976 307.2C946.176 506.88 897.024 615.424 817.152 693.248zM770.048 125.952c-65.536-65.536-157.696-108.544-260.096-108.544-102.4 0-194.56 40.96-260.096 108.544C184.32 191.488 141.312 283.648 141.312 386.048s40.96 194.56 108.544 260.096C317.44 711.68 409.6 754.688 509.952 754.688c100.352 0 192.512-40.96 258.048-106.496l2.048-2.048c65.536-65.536 108.544-157.696 108.544-260.096S837.632 191.488 770.048 125.952zM385.024 646.144l202.752-116.736 202.752-116.736c14.336-8.192 18.432-26.624 10.24-40.96-4.096-4.096-8.192-8.192-12.288-12.288l-202.752-116.736 0 0-202.752-116.736c-14.336-8.192-32.768-4.096-40.96 10.24-2.048 6.144-4.096 10.24-4.096 16.384L337.92 386.048l0 0L337.92 621.568c0 16.384 12.288 28.672 28.672 28.672C374.784 650.24 380.928 648.192 385.024 646.144L385.024 646.144z"  horiz-adv-x="1024" />

    
    <glyph glyph-name="zhankai" unicode="&#58897;" d="M65.290005 752.534518l0-67.010183L958.708971 685.524335l0 67.010183L65.290005 752.534518zM65.290005 15.466506 958.708971 15.466506l0 67.008136L65.290005 82.474642 65.290005 15.466506zM65.290005 350.494908 958.708971 350.494908l0 67.008136L65.290005 417.503045 65.290005 350.494908z"  horiz-adv-x="1024" />

    
    <glyph glyph-name="carfence" unicode="&#58888;" d="M498.029714 45.714286M287.850679 226.904349l166.280682-116.855771-31.521829-44.854192-166.280682 116.855771 31.521829 44.854192ZM469.905649 676.870429l45.5424-30.577371-237.361942-353.53047-45.5424 30.577371 237.361942 353.53047ZM533.467429 621.714286c-55.478857 0-100.571429 45.092571-100.571429 100.571429S478.025143 822.857143 533.467429 822.857143c55.442286 0 100.571429-45.092571 100.571429-100.571429S588.946286 621.714286 533.467429 621.714286zM533.467429 768c-25.197714 0-45.714286-20.516571-45.714286-45.714286S508.269714 676.571429 533.467429 676.571429c25.197714 0 45.714286 20.516571 45.714286 45.714286S558.665143 768 533.467429 768zM213.467429 147.529143c-55.478857 0-100.571429 45.092571-100.571429 100.571429s45.092571 100.571429 100.571429 100.571429 100.571429-45.092571 100.571429-100.571429S268.946286 147.529143 213.467429 147.529143zM213.467429 293.814857c-25.197714 0-45.714286-20.516571-45.714286-45.714286s20.516571-45.714286 45.714286-45.714286 45.714286 20.516571 45.714286 45.714286S238.701714 293.814857 213.467429 293.814857zM498.029714-54.857143c-55.478857 0-100.571429 45.092571-100.571429 100.571429s45.092571 100.571429 100.571429 100.571429c55.478857 0 100.571429-45.092571 100.571429-100.571429S553.508571-54.857143 498.029714-54.857143zM498.029714 91.428571c-25.197714 0-45.714286-20.516571-45.714286-45.714286s20.516571-45.714286 45.714286-45.714286 45.714286 20.516571 45.714286 45.714286S523.227429 91.428571 498.029714 91.428571zM492.726857 661.577143M573.732571 28.928l-6.985143 54.418286 54.381714 6.985143 6.985143-54.418286L573.732571 28.928zM682.569143 42.934857l-6.985143 54.418286 54.381714 6.948571 6.985143-54.418286L682.569143 42.934857zM791.405714 56.905143l-6.985143 54.418286 54.381714 6.985143 6.985143-54.418286L791.405714 56.905143zM900.205714 70.875429l-2.157714 16.713143-14.884571 25.234286 10.825143 6.4-0.768 6.070857 14.189714 1.828571 23.076571 13.568 36.096-61.330286L900.205714 70.875429zM855.369143 160.109714l-27.867429 47.286857 47.286857 27.867429 27.867429-47.286857L855.369143 160.109714zM799.670857 254.646857l-27.867429 47.286857 47.286857 27.867429 27.867429-47.286857L799.670857 254.646857zM743.972571 349.184l-27.830857 47.250286 47.286857 27.830857 27.830857-47.250286L743.972571 349.184zM688.274286 443.721143l-27.830857 47.250286 47.286857 27.830857 27.830857-47.250286L688.274286 443.721143zM632.612571 538.258286l-27.830857 47.250286 47.286857 27.830857 27.830857-47.250286L632.612571 538.258286zM576.914286 632.795429l-14.555429 24.722286 47.286857 27.867429 14.555429-24.722286L576.914286 632.795429z"  horiz-adv-x="1024" />

    
    <glyph glyph-name="jia11" unicode="&#59072;" d="M906.212134 330.267014 565.732986 330.267014 565.732986-10.212134C565.732986-30.013685 541.666486-63.972 511.97312-63.972 482.297674-63.972 458.213254-30.013685 458.213254-10.212134L458.213254 330.267014 117.734106 330.267014C97.950475 330.267014 63.97424 354.333514 63.97424 384.02688 63.97424 413.720246 97.950475 437.786746 117.734106 437.786746L458.213254 437.786746 458.213254 778.265894C458.213254 798.049525 482.297674 832.02576 511.97312 832.02576 541.666486 832.02576 565.732986 798.049525 565.732986 778.265894L565.732986 437.786746 906.212134 437.786746C925.995765 437.786746 959.972 413.720246 959.972 384.02688 959.972 354.333514 925.995765 330.267014 906.212134 330.267014Z"  horiz-adv-x="1024" />

    
    <glyph glyph-name="jian2" unicode="&#59073;" d="M117.734106 437.786746 906.212134 437.786746C925.995765 437.786746 959.972 413.720246 959.972 384.02688 959.972 354.333514 925.995765 330.267014 906.212134 330.267014L117.734106 330.267014C97.950475 330.267014 63.97424 354.333514 63.97424 384.02688 63.97424 413.720246 97.950475 437.786746 117.734106 437.786746Z"  horiz-adv-x="1024" />

    
    <glyph glyph-name="location" unicode="&#58911;" d="M511.998 832.486c-200.688 0-363.371-150.581-363.371-336.355 0-280.296 302.807-560.618 363.371-560.618 60.567 0 363.373 280.322 363.373 560.618 0 185.774-162.684 336.355-363.373 336.355zM511.998 294.304c-100.343 0-181.697 80.316-181.697 179.394s81.354 179.394 181.697 179.394c100.345 0 181.674-80.316 181.674-179.394s-81.329-179.394-181.674-179.394z"  horiz-adv-x="1024" />

    
    <glyph glyph-name="chakanshu" unicode="&#59286;" d="M819.2512 25.6C1017.1904 25.6 1177.6512 186.0608 1177.6512 384 1177.6512 581.9392 1017.1904 742.4 819.2512 742.4 621.312 742.4 460.8512 581.9392 460.8512 384 460.8512 186.0608 621.312 25.6 819.2512 25.6L819.2512 25.6ZM819.2512 128C677.8368 128 563.2512 242.5856 563.2512 384 563.2512 525.4144 677.8368 640 819.2512 640 960.6144 640 1075.2512 525.4144 1075.2512 384 1075.2512 242.5856 960.6144 128 819.2512 128L819.2512 128ZM819.2512 793.6C977.2032 793.6 1145.1392 757.9136 1310.7712 610.7136 1370.8288 557.312 1426.5856 499.456 1476.7104 440.9344 1487.0528 428.8512 1500.4672 412.416 1510.2976 400.3328 1518.08 390.7584 1518.2848 377.2928 1510.5536 367.7184 1502.8224 358.144 1491.5584 344.4736 1476.7104 327.1168 1426.5856 268.5952 1370.8288 210.7392 1310.7712 157.3376 1145.1392 10.1376 977.2032-25.5488 819.2512-25.5488 661.2992-25.5488 493.3632 10.1376 327.7312 157.3376 267.6736 210.7392 211.9168 268.544 161.792 327.1168 156.416 333.4144 150.1696 340.8896 144.0256 348.3136 126.8224 369.2032 126.6688 399.0528 143.9232 419.84 149.1456 426.1376 155.0848 433.152 161.7408 440.9344 211.8656 499.456 267.6224 557.312 327.68 610.7136 493.3632 757.9136 661.2992 793.6 819.2512 793.6L819.2512 793.6ZM819.2512 896C631.0912 896 442.3168 849.5104 259.6864 687.2576 195.8912 630.5792 136.96 569.3952 83.968 507.5456 50.5344 468.5312 25.2928 436.1216 9.6768 414.4128L0 400.9984 0 384.4608 0 383.5392 0 367.0016 9.6768 353.5872C25.2928 331.8784 50.5344 299.52 83.968 260.4544 136.96 198.5536 195.8912 137.4208 259.6864 80.7424 442.3168-81.5616 631.04-128 819.2512-128 1007.4112-128 1196.1856-81.5616 1378.816 80.7424 1442.6112 137.472 1501.5424 198.6048 1554.5344 260.4544 1587.968 299.4688 1613.2096 331.8784 1628.8256 353.5872L1638.5024 367.0016 1638.5024 383.5392 1638.5024 384.4608 1638.5024 400.9984 1628.8256 414.4128C1613.2096 436.0704 1587.968 468.48 1554.5344 507.5456 1501.5424 569.4464 1442.6624 630.5792 1378.816 687.2576 1196.1856 849.5104 1007.4112 896 819.2512 896L819.2512 896Z"  horiz-adv-x="1639" />

    
    <glyph glyph-name="iconset0233" unicode="&#59287;" d="M526.933333 676.266667C522.666667 680.533333 518.4 682.666667 512 682.666667c-6.4 0-10.666667-2.133333-14.933333-6.4l-85.333333-85.333333C407.466667 586.666667 405.333333 582.4 405.333333 576c0-12.8 8.533333-21.333333 21.333333-21.333333 6.4 0 10.666667 2.133333 14.933333 6.4l49.066667 49.066667L490.666667 362.666667c0-12.8 8.533333-21.333333 21.333333-21.333333s21.333333 8.533333 21.333333 21.333333L533.333333 610.133333l49.066667-49.066667c4.266667-4.266667 8.533333-6.4 14.933333-6.4 12.8 0 21.333333 8.533333 21.333333 21.333333 0 6.4-2.133333 10.666667-6.4 14.933333L526.933333 676.266667zM896 853.333333 128 853.333333C81.066667 853.333333 42.666667 814.933333 42.666667 768l0-640c0-46.933333 38.4-85.333333 85.333333-85.333333l298.666667 0 0-85.333333-64 0c-12.8 0-21.333333-8.533333-21.333333-21.333333s8.533333-21.333333 21.333333-21.333333l298.666667 0c12.8 0 21.333333 8.533333 21.333333 21.333333s-8.533333 21.333333-21.333333 21.333333l-64 0 0 85.333333 298.666667 0c46.933333 0 85.333333 38.4 85.333333 85.333333L981.333333 768C981.333333 814.933333 942.933333 853.333333 896 853.333333zM554.666667-42.666667l-85.333333 0 0 85.333333 85.333333 0L554.666667-42.666667zM938.666667 128c0-23.466667-19.2-42.666667-42.666667-42.666667L128 85.333333c-23.466667 0-42.666667 19.2-42.666667 42.666667l0 42.666667 853.333333 0L938.666667 128zM938.666667 213.333333 85.333333 213.333333 85.333333 768c0 23.466667 19.2 42.666667 42.666667 42.666667l768 0c23.466667 0 42.666667-19.2 42.666667-42.666667L938.666667 213.333333z"  horiz-adv-x="1024" />

    
    <glyph glyph-name="yonhu" unicode="&#59288;" d="M368.071 362.604c106.49 0 193.128 86.533 193.128 192.894s-86.637 192.892-193.128 192.892-193.128-86.531-193.128-192.892c0-106.362 86.637-192.894 193.128-192.894zM368.071 697.166c78.246 0 141.904-63.552 141.904-141.669 0-78.117-63.658-141.671-141.904-141.671s-141.904 63.553-141.904 141.671c-0 78.116 63.658 141.669 141.904 141.669zM782.22 357.603c50.316 21.135 85.738 70.876 85.738 128.729 0 76.961-62.684 139.573-139.732 139.573-77.048 0-139.731-62.612-139.731-139.573 0-62.971 41.97-116.327 99.431-133.648-44.631-12.485-84.175-39.092-112.365-75.757-56.391 53.006-129.938 82.103-207.992 82.103-80.692 0-156.567-31.094-213.65-87.555-57.158-56.534-88.637-131.723-88.637-211.715 0-5.132 0.132-10.312 0.393-15.398l1.247-24.298h601.293l1.249 24.296c0.262 5.091 0.395 10.271 0.395 15.4 0 18.185-1.644 36.117-4.83 53.642h293.555l1.245 24.301c0.184 3.605 0.277 7.275 0.277 10.906-0 104.698-77.017 191.903-177.885 208.994zM639.717 486.332c0 48.716 39.704 88.348 88.508 88.348s88.509-39.633 88.509-88.348c0-48.717-39.705-88.35-88.509-88.35s-88.508 39.634-88.508 88.35zM116.771 71.287c6.118 131.442 116.272 236.52 250.797 236.52 134.526 0 244.679-105.078 250.798-236.52h-501.595zM650.843 164.625c-9.828 26.062-23.338 50.706-40.301 73.281 29.898 44.148 80.53 71.522 135.466 71.522 84.339 0 153.91-63.614 162.073-144.803h-257.239z"  horiz-adv-x="1024" />

    
    <glyph glyph-name="zaixianyonhu" unicode="&#59289;" d="M356.246 214.437c-68.156 41.949-107.247 103.841-107.247 169.805 0 65.966 39.090 127.86 107.247 169.809 12.046 7.415 15.801 23.19 8.386 35.237-7.414 12.046-23.191 15.802-35.237 8.387-39.641-24.4-72.539-56.044-95.138-91.515-23.867-37.461-36.482-79.62-36.482-121.918 0-42.297 12.615-84.454 36.482-121.915 22.599-35.47 55.497-67.115 95.138-91.513 4.185-2.577 8.822-3.805 13.4-3.805 8.599 0 16.998 4.33 21.836 12.191 7.415 12.047 3.659 27.823-8.386 35.237zM263.944 141.419c-92.603 61.112-145.714 149.624-145.714 242.841 0 93.196 53.094 181.683 145.668 242.774 11.806 7.79 15.061 23.677 7.27 35.483-7.79 11.806-23.677 15.062-35.483 7.27-107.196-70.741-168.678-174.811-168.678-285.527 0-110.737 61.497-214.831 168.722-285.594 4.344-2.867 9.24-4.239 14.083-4.239 8.317 0 16.476 4.046 21.4 11.507 7.792 11.807 4.537 27.693-7.268 35.484zM788.661 669.787c-11.805 7.791-27.693 4.536-35.483-7.27-7.79-11.806-4.536-27.693 7.27-35.483 92.575-61.092 145.671-149.58 145.671-242.774 0-93.216-53.112-181.728-145.716-242.841-11.806-7.79-15.060-23.678-7.27-35.484 4.925-7.462 13.082-11.507 21.4-11.507 4.841 0 9.74 1.371 14.084 4.239 107.227 70.762 168.725 174.857 168.725 285.594 0 110.715-61.481 214.785-168.681 285.527zM790.090 262.328c23.866 37.459 36.481 79.617 36.481 121.915 0 42.298-12.615 84.457-36.481 121.918-22.599 35.471-55.497 67.116-95.14 91.515-12.047 7.414-27.822 3.659-35.237-8.387-7.415-12.045-3.659-27.822 8.386-35.237 68.156-41.949 107.248-103.842 107.248-169.809 0-65.964-39.090-127.856-107.248-169.804-12.045-7.415-15.801-23.19-8.386-35.238 4.838-7.861 13.236-12.191 21.835-12.191 4.579 0 9.216 1.228 13.4 3.805 39.642 24.399 72.541 56.042 95.141 91.513zM567.129 377.725c24.123 17.151 39.887 45.306 39.887 77.071 0 52.128-42.453 94.538-94.634 94.538-52.18 0-94.633-42.409-94.633-94.538 0-31.696 15.696-59.798 39.731-76.959-49.876-21.128-84.917-70.235-84.917-127.301 0-2.367 0.061-4.762 0.182-7.119l1.249-24.296h276.374l1.238 24.309c0.12 2.359 0.181 4.75 0.181 7.107-0.001 56.966-34.921 105.998-84.658 127.189zM512.381 498.111c23.937 0 43.412-19.431 43.412-43.315 0-23.883-19.475-43.313-43.412-43.313-23.936 0-43.41 19.431-43.41 43.313-0 23.883 19.474 43.315 43.41 43.315zM426.089 270.343c9.12 38.543 44.255 67.338 86.086 67.338s76.967-28.795 86.086-67.338h-172.171z"  horiz-adv-x="1024" />

    
    <glyph glyph-name="qingchu1" unicode="&#59290;" d="M452.225097 749.09995l-340.587939-340.587939c-13.073072-13.073072-34.058794-13.073072-47.131866 0-13.073072 13.073072-12.901058 34.058794 0 47.131866l340.587939 340.587939c13.073072 13.073072 34.058794 13.073072 47.131866 0C465.298169 783.158743 465.298169 762.173022 452.225097 749.09995L452.225097 749.09995zM924.231816 277.265244l-340.587939-340.587939c-13.073072-13.073072-34.058794-13.073072-47.131866 0-13.073072 13.073072-12.901058 34.058794 0 47.131866l340.587939 340.587939c13.073072 13.073072 34.058794 13.073072 47.131866 0C937.304888 311.324038 937.132874 290.166303 924.231816 277.265244L924.231816 277.265244zM451.193012 275.201075l-103.036452-103.036452c-13.073072-13.073072-34.058794-13.073072-47.131866 0-13.073072 13.073072-12.901058 34.058794 0 47.131866l103.036452 103.036452c13.073072 13.073072 34.058794 13.073072 47.131866 0C464.266084 309.259869 464.266084 288.102133 451.193012 275.201075L451.193012 275.201075zM298.444482 371.012935l-74.654124-74.654124c-13.073072-13.073072-34.058794-13.073072-47.131866 0-13.073072 13.073072-12.901058 34.058794 0 47.131866l74.654124 74.654124c13.073072 13.073072 34.058794 13.073072 47.131866 0C311.34554 405.071729 311.34554 383.913993 298.444482 371.012935L298.444482 371.012935zM545.28473 124.000672l-74.654124-74.654124c-13.073072-13.073072-34.058794-13.073072-47.131866 0-13.073072 13.073072-12.901058 34.058794 0 47.131866l74.654124 74.654124c13.073072 13.073072 34.058794 13.073072 47.131866 0C558.357803 158.059466 558.357803 137.073744 545.28473 124.000672L545.28473 124.000672zM536.339997-63.322694 64.505291 408.339997c-13.073072 13.073072-13.073072 34.058794 0 47.131866 13.073072 13.073072 34.058794 12.901058 47.131866 0l471.834705-471.834705c13.073072-13.073072 13.073072-34.058794 0-47.131866C570.398791-76.395767 549.413069-76.395767 536.339997-63.322694L536.339997-63.322694zM732.264069 132.429363 260.429363 604.264069c-13.073072 13.073072-13.073072 34.058794 0 47.131866 13.073072 13.073072 34.058794 12.901058 47.131866 0L779.223921 179.56123c13.073072-13.073072 13.073072-34.058794 0-47.131866C766.322862 119.356291 745.165127 119.528305 732.264069 132.429363L732.264069 132.429363zM912.362842 676.509995l-107.680833 107.852847c-13.073072 13.073072-13.073072 34.058794 0 47.131866 13.073072 13.073072 34.058794 12.901058 47.131866 0l107.680833-107.852847c13.073072-13.073072 13.073072-34.058794 0-47.131866C946.421636 663.436923 925.263901 663.436923 912.362842 676.509995L912.362842 676.509995zM587.256173 567.281035 405.437259 749.09995c-13.073072 13.073072-13.073072 34.058794 0 47.131866 13.073072 13.073072 34.058794 12.901058 47.131866 0l181.990929-181.990929c13.073072-13.073072 13.073072-34.058794 0-47.131866C621.486981 554.207962 600.329246 554.207962 587.256173 567.281035L587.256173 567.281035zM877.09995 277.437259 695.281035 459.256173c-13.073072 13.073072-13.073072 34.058794 0 47.131866 13.073072 13.073072 34.058794 12.901058 47.131866 0l181.990929-181.990929c13.073072-13.073072 13.073072-34.058794 0-47.131866C911.330758 264.364186 890.173022 264.364186 877.09995 277.437259L877.09995 277.437259zM959.322694 676.509995 742.240887 459.428187c-13.073072-13.073072-34.058794-13.073072-47.131866 0-13.073072 13.073072-12.901058 34.058794 0 47.131866l217.081807 217.081807c13.073072 13.073072 34.058794 13.073072 47.131866 0C972.395767 710.740803 972.395767 689.583067 959.322694 676.509995L959.322694 676.509995zM851.641861 784.362842 634.38804 567.281035c-13.073072-13.073072-34.058794-13.073072-47.131866 0-13.073072 13.073072-12.901058 34.058794 0 47.131866L804.509995 831.494709c13.073072 13.073072 34.058794 13.073072 47.131866 0C864.714934 818.421636 864.54292 797.435915 851.641861 784.362842L851.641861 784.362842z"  horiz-adv-x="1024" />

    
    <glyph glyph-name="dingwei1" unicode="&#58972;" d="M511.997953 831.255417c-181.140547 0-327.984986-143.030577-327.984986-319.468009 0-176.436408 327.984986-575.041802 327.984986-575.041802S839.987033 335.351 839.987033 511.786385C839.987033 688.22484 693.142593 831.255417 511.997953 831.255417zM512 264.732639c-131.739417 0-238.535745 106.796328-238.535745 238.535745s106.796328 238.535745 238.535745 238.535745 238.535745-106.796328 238.535745-238.535745S643.739417 264.732639 512 264.732639zM512 562.902576c-32.93511 0-59.634192-26.699082-59.634192-59.634192 0-32.93511 26.699082-59.634192 59.634192-59.634192 32.93511 0 59.634192 26.699082 59.634192 59.634192C571.633169 536.203494 544.93511 562.902576 512 562.902576z"  horiz-adv-x="1024" />

    
    <glyph glyph-name="yuncunchu" unicode="&#59091;" d="M870.4 838.4c-89.6 38.4-217.6 57.6-358.4 57.6s-268.8-19.2-358.4-57.6c-102.4-44.8-153.6-96-153.6-160v-595.2c0-57.6 51.2-115.2 153.6-153.6 89.6-38.4 217.6-57.6 358.4-57.6s268.8 19.2 358.4 57.6c96 38.4 153.6 96 153.6 153.6v595.2c0 64-51.2 115.2-153.6 160v0zM812.8 576c-83.2-32-198.4-44.8-300.8-44.8-108.8 0-217.6 12.8-300.8 44.8-96 25.6-140.8 64-140.8 102.4s51.2 76.8 140.8 108.8c83.2 32 192 44.8 300.8 44.8 102.4 0 217.6-19.2 300.8-44.8 89.6-32 140.8-70.4 140.8-108.8s-44.8-76.8-140.8-102.4v0zM819.2 390.4c-83.2-25.6-198.4-44.8-307.2-44.8-108.8 0-217.6 19.2-307.2 44.8-89.6 32-140.8 70.4-140.8 108.8v70.4c64-25.6 108.8-57.6 179.2-70.4 83.2-19.2 172.8-32 268.8-32 96 0 185.6 12.8 268.8 32 70.4 12.8 115.2 44.8 179.2 70.4v-76.8c0-32-51.2-70.4-140.8-102.4v0zM819.2 185.6c-83.2-25.6-198.4-44.8-307.2-44.8-108.8 0-217.6 19.2-307.2 44.8-89.6 25.6-140.8 64-140.8 108.8v96c64-32 108.8-57.6 179.2-76.8 83.2-19.2 172.8-32 268.8-32 96 0 185.6 12.8 268.8 32 70.4 19.2 115.2 44.8 179.2 76.8v-96c0-44.8-51.2-83.2-140.8-108.8v0zM512-64c-108.8 0-217.6 19.2-307.2 44.8-89.6 25.6-140.8 64-140.8 108.8v96c64-32 108.8-57.6 179.2-76.8 76.8-19.2 172.8-32 262.4-32 96 0 185.6 12.8 268.8 32 76.8 19.2 121.6 44.8 185.6 76.8v-96c0-38.4-51.2-76.8-140.8-108.8-83.2-32-204.8-44.8-307.2-44.8v0zM512-64z"  horiz-adv-x="1024" />

    
    <glyph glyph-name="chakan4" unicode="&#58974;" d="M956 271.248C847.632 124.752 689.056 32.128 512 32.128 334.96 32.128 176.384 124.752 68 271.248 20.144 335.92 20.144 432.048 68 496.736 176.384 643.232 334.96 735.856 512 735.856 689.056 735.856 847.632 643.232 956 496.736 1003.856 432.048 1003.856 335.92 956 271.248ZM907.872 443.616C807.344 588.672 662.656 671.856 510.912 671.856 359.168 671.856 214.48 588.672 113.952 443.616 90 409.056 90 358.896 113.952 324.336 214.48 179.28 359.168 96.08 510.912 96.08 662.656 96.08 807.344 179.28 907.872 324.352 931.824 358.896 931.824 409.056 907.872 443.616ZM512.32 160.176C388.608 160.176 288.32 260.464 288.32 384.176 288.32 507.888 388.608 608.176 512.32 608.176 636.032 608.176 736.32 507.888 736.32 384.176 736.32 260.464 636.032 160.176 512.32 160.176ZM512.32 544.176C423.952 544.176 352.32 472.544 352.32 384.176 352.32 295.808 423.952 224.176 512.32 224.176 600.688 224.176 672.32 295.808 672.32 384.176 672.32 472.544 600.688 544.176 512.32 544.176Z"  horiz-adv-x="1024" />

    
    <glyph glyph-name="shengyin" unicode="&#59039;" d="M784 524.8c-16 25.6-35.2 44.8-44.8 54.4-9.6 9.6-28.8 9.6-38.4-3.2-9.6-9.6-9.6-28.8 3.2-38.4 3.2-3.2 6.4-6.4 9.6-9.6 9.6-9.6 19.2-22.4 25.6-35.2 57.6-86.4 57.6-179.2-38.4-278.4-9.6-9.6-9.6-28.8 0-38.4 9.6-9.6 28.8-9.6 38.4 0C851.2 297.6 851.2 419.2 784 524.8zM896 649.6c-16 25.6-35.2 48-54.4 70.4-9.6 12.8-19.2 19.2-25.6 25.6-9.6 9.6-28.8 9.6-38.4-3.2-9.6-9.6-9.6-28.8 3.2-38.4 3.2-3.2 12.8-9.6 22.4-22.4 16-19.2 32-38.4 48-64 105.6-160 105.6-336-70.4-518.4-9.6-9.6-9.6-28.8 0-38.4 9.6-9.6 28.8-9.6 38.4 0C1014.4 265.6 1014.4 470.4 896 649.6zM483.2 809.6l-217.6-185.6-108.8 0c-57.6 0-108.8-48-108.8-108.8l0-272c0-60.8 48-108.8 108.8-108.8l96 0 230.4-182.4c54.4-41.6 105.6-16 105.6 51.2l0 755.2C588.8 828.8 534.4 854.4 483.2 809.6zM534.4 6.4c0-22.4-3.2-22.4-19.2-9.6l-236.8 185.6c-3.2 3.2-9.6 6.4-16 6.4l-105.6 0c-28.8 0-54.4 25.6-54.4 54.4l0 272c0 28.8 25.6 54.4 54.4 54.4l118.4 0c6.4 0 12.8 3.2 16 6.4l224 192c16 12.8 16 12.8 16-6.4L531.2 6.4z"  horiz-adv-x="1024" />

    
    <glyph glyph-name="iconfontgengduo" unicode="&#58976;" d="M511.999488 832.354448c-246.99951 0-447.230857-200.231347-447.230857-447.230857 0-246.998487 200.23237-447.231881 447.230857-447.231881 246.99951 0 447.229834 200.233394 447.229834 447.231881C959.229323 632.123101 758.998999 832.354448 511.999488 832.354448zM309.68776 316.10568c-38.145785 0-69.070098 30.924313-69.070098 69.070098s30.92329 69.070098 69.070098 69.070098 69.070098-30.92329 69.070098-69.070098S347.834568 316.10568 309.68776 316.10568zM515.868609 316.10568c-38.145785 0-69.070098 30.924313-69.070098 69.070098s30.92329 69.070098 69.070098 69.070098 69.070098-30.92329 69.070098-69.070098S554.014394 316.10568 515.868609 316.10568zM720.007963 316.10568c-38.145785 0-69.070098 30.924313-69.070098 69.070098s30.924313 69.070098 69.070098 69.070098 69.070098-30.92329 69.070098-69.070098S758.154771 316.10568 720.007963 316.10568z"  horiz-adv-x="1024" />

    
    <glyph glyph-name="shujuzidingyishezhi" unicode="&#59007;" d="M64.081992 64.4665l191.719486 0 0 511.25401L64.081992 575.720509 64.081992 64.4665zM127.988488 511.814014l63.906495 0 0-383.441019L127.988488 128.372995 127.988488 511.814014zM511.4336 192.279491 511.4336 831.349561 319.707974 831.349561 319.707974 64.4665 383.614469 64.4665 383.614469 767.443066 447.520965 767.443066 447.520965 192.279491ZM639.246591 639.630075 703.153086 639.630075 703.153086 384.001023 767.059582 384.001023 767.059582 703.53657 575.340095 703.53657 575.340095 320.093505 639.246591 320.093505ZM939.432441 313.415408l-46.057989 52.422953c-12.231579 12.232602-28.395724 18.286482-44.559868 18.162662-16.163121-0.125867-33.013905-6.365988-45.370327-18.723434L447.520965 74.514343l0-137.861858 137.431046 0L938.996512 223.920118C963.71038 248.697431 963.835224 289.013649 939.432441 313.415408zM562.234613 0.560004l-50.801013 0L511.4336 51.861414l336.25944 268.544199c0 0 0.312108-0.312108 0.436952-0.312108l0.188288 0 45.620014-52.54882L562.234613 0.560004z"  horiz-adv-x="1024" />

    
    <glyph glyph-name="shouhuishangxia" unicode="&#59291;" d="M454.464 241.984l-253.44-253.44c-12.032-12.032-12.032-31.36 0-43.392 11.968-11.968 31.36-11.968 43.328 0l237.376 237.376 237.376-237.376c11.968-11.968 31.36-11.968 43.328 0 12.032 12.032 12.032 31.36 0 43.392l-253.44 253.44C491.264 259.712 478.016 261.696 454.464 241.984zM507.968 459.072l252.48 253.376c11.968 11.968 11.968 31.36 0 43.392-11.968 11.968-31.296 11.968-43.264 0L480.704 518.464 244.16 755.84c-11.968 11.968-31.296 11.968-43.264 0-11.968-12.032-11.968-31.424 0-43.392l252.48-253.376C465.984 446.656 491.136 442.176 507.968 459.072z"  horiz-adv-x="1024" />

    
    <glyph glyph-name="suoxiaotuichuquanpingshouhui" unicode="&#59418;" d="M410.112 382.336 97.664 382.336c-17.664 0-32-14.336-32-32s14.336-32 32-32l242.752 0-267.456-267.456c-12.032-12.032-12.032-31.36 0-43.392 11.968-11.968 31.36-11.968 43.328 0l269.376 269.376 0-246.592c0-17.664 14.336-32 32-32s32 14.336 32 32l0 320C449.664 374.4 435.84 382.336 410.112 382.336zM553.216 446.336l312.512 0c17.664 0 32 14.336 32 32s-14.336 32-32 32L622.912 510.336l267.456 267.456c12.032 12.032 12.032 31.36 0 43.392-11.968 11.968-31.36 11.968-43.328 0L577.664 551.744 577.664 798.336c0 17.664-14.336 32-32 32s-32-14.336-32-32l0-320C513.664 457.856 529.664 446.336 553.216 446.336z"  horiz-adv-x="1024" />

    
    <glyph glyph-name="xiayigexiayishou" unicode="&#59301;" d="M832 735.872c0 17.664-14.336 32-32 32S768 753.536 768 735.872l0-282.88L214.592 761.408c-18.176 10.112-39.936 10.048-58.112 0C138.24 751.232 127.424 733.12 127.424 712.832l0-656.64c0-20.224 10.816-38.464 29.056-48.576C165.568 2.56 175.488 0 185.472 0s19.968 2.56 29.056 7.616L768 316.032l0-284.096c0-17.664 14.336-32 32-32s32 14.336 32 32L832 735.872zM191.808 66.752 188.672 704l573.312-319.488L191.808 66.752z"  horiz-adv-x="1024" />

    
    <glyph glyph-name="shoucangxing" unicode="&#59412;" d="M895.40992 577.28 628.52992 578.56 540.84992 850.56c0 0.64-0.64 0.64-0.64 1.92C529.32992 881.28 504.36992 896 479.40992 896 454.44992 896 429.48992 881.28 418.60992 852.48c0-0.64-0.64-0.64-0.64-1.92L330.28992 578.56 63.40992 577.28C1.96992 576-22.99008 498.56 25.64992 459.52l213.12-168.96-77.44-266.88C147.24992-23.04 183.08992-64 223.40992-64c12.16 0 24.96 3.84 36.48 12.16l219.52 160 219.52-160C710.44992-60.16 723.24992-64 735.40992-64c39.68 0 75.52 40.32 61.44 87.68l-77.44 266.88 213.12 168.96C981.16992 498.56 956.84992 576 895.40992 577.28zM678.44992 347.52c-23.04-17.92-32.64-48.64-24.32-77.44l74.24-256.64L518.44992 167.04c-11.52 8.32-25.6 12.8-39.04 12.8-13.44 0-27.52-4.48-39.04-12.8l-210.56-152.96 74.24 256.64c8.32 28.8-1.28 59.52-24.32 77.44L75.56992 512l256-0.64C359.72992 512 385.32992 531.2 394.28992 559.36l84.48 259.2 84.48-257.28C573.48992 533.12 598.44992 513.92 627.24992 513.28l257.92 0.64L678.44992 347.52z"  horiz-adv-x="1025" />

    
    <glyph glyph-name="xitong2" unicode="&#58916;" d="M446.475758 235.892556C442.182118 235.892556 437.789395 236.718256 433.561811 238.534796 371.832486 264.759025 331.934666 325.134202 331.934666 392.379203 331.934666 484.461257 406.610966 559.40178 498.428796 559.40178 590.246626 559.40178 664.922926 484.461257 664.922926 392.379203 664.922926 326.125042 626.907702 265.881977 568.051813 238.898103 551.43873 231.301664 531.853129 238.534796 524.223661 255.147878 516.66025 271.727932 523.926409 291.346562 540.506464 298.943001 575.945504 315.192775 598.866933 351.886879 598.866933 392.379203 598.866933 448.064405 553.816746 493.345788 498.428796 493.345788 443.040846 493.345788 397.990659 448.064405 397.990659 392.379203 397.990659 351.688711 422.101097 315.159747 459.422733 299.339337 476.200955 292.172262 484.02859 272.784828 476.894543 256.006606 471.544007 243.455967 459.323649 235.892556 446.475758 235.892556M542.851451-100.708967 454.039169-100.708967C408.724758-100.708967 371.865514-63.849723 371.865514-18.56834L371.865514 74.438498C363.245207 77.014682 353.435892 80.152342 344.088969 83.422113L293.622191 32.988363C262.608902 1.942046 208.476016 1.942046 177.462727 32.988363L114.643478 95.774584C82.606322 127.81174 82.606322 179.929919 114.61045 211.967075L138.985112 236.308709C151.899058 249.222655 172.772752 249.222655 185.686698 236.308709 198.600645 223.394762 198.600645 202.521068 185.686698 189.607122L161.345065 165.265488C155.069746 158.957141 155.069746 148.784518 161.345065 142.476171L224.164314 79.68995C228.259786 75.594478 233.048845 74.966946 235.525945 74.966946 238.036073 74.966946 242.792104 75.594478 246.887576 79.68995L312.778429 145.547774C322.686828 155.489201 337.747594 158.065385 350.463372 151.955206 365.788363 144.589963 401.029235 134.58248 413.282622 131.345736 427.81494 127.547516 437.921507 114.435402 437.921507 99.440692L437.921507-18.56834C437.921507-27.419843 445.154638-34.652974 454.039169-34.652974L542.851451-34.652974C551.735982-34.652974 558.936086-27.419843 558.936086-18.56834L558.936086 99.440692C558.936086 115.29413 570.23166 128.934692 585.820875 131.874184 606.463372 135.771488 626.841646 142.542227 646.427248 151.955206 659.143027 158.065385 674.170765 155.489201 684.079164 145.547774L749.970017 79.68995C754.098516 75.594478 758.854548 74.966946 761.331648 74.966946 763.808747 74.966946 768.597807 75.594478 772.726306 79.68995L835.545555 142.476171C841.787847 148.784518 841.787847 158.957141 835.512527 165.265488L769.654703 231.123313C759.746304 241.031712 757.17012 256.158534 763.247271 268.808257 772.66025 288.327803 779.43099 308.706077 783.328293 329.348574 786.267785 344.970817 799.908347 356.266391 815.761786 356.266391L914.647607 356.266391C923.532138 356.266391 930.765269 363.499523 930.765269 372.351026L930.765269 461.196336C930.765269 470.047839 923.532138 477.28097 914.647607 477.28097L815.761786 477.28097C799.908347 477.28097 786.267785 488.576545 783.328293 504.165759 779.43099 524.742201 772.66025 545.153503 763.247271 564.739105 757.17012 577.388827 759.746304 592.51565 769.654703 602.424049L835.545555 668.281873C841.787847 674.590221 841.787847 684.762844 835.512527 691.071191L772.726306 753.857412C768.597807 757.952883 763.808747 758.580415 761.331648 758.580415 758.854548 758.580415 754.098516 757.952883 749.970017 753.857412L684.079164 687.999587C674.170765 678.05816 659.143027 675.481977 646.427248 681.592156 626.841646 691.005135 606.463372 697.775874 585.820875 701.673178 570.23166 704.612669 558.936086 718.253232 558.936086 734.10667L558.936086 813.869281C558.936086 822.753812 551.735982 829.953916 542.851451 829.953916L454.039169 829.953916C445.154638 829.953916 437.921507 822.753812 437.921507 813.869281L437.921507 734.10667C437.921507 718.682596 427.220436 705.240201 412.126642 701.904374 397.495239 698.601574 369.025106 690.509715 350.463372 681.592156 337.747594 675.481977 322.686828 678.05816 312.778429 687.999587L246.920604 753.857412C242.792104 757.952883 238.036073 758.580415 235.525945 758.580415 233.048845 758.580415 228.259786 757.952883 224.164314 753.857412L161.345065 691.071191C155.069746 684.762844 155.069746 674.590221 161.345065 668.281873L227.20289 602.424049C236.913121 592.713818 239.621417 578.049387 233.973629 565.531777 227.665282 551.494878 217.162379 523.189885 213.562327 504.165759 210.622836 488.576545 196.982273 477.28097 181.095807 477.28097L82.209986 477.28097C73.358483 477.28097 66.125352 470.047839 66.125352 461.196336L66.125352 372.351026C66.125352 363.499523 73.358483 356.266391 82.209986 356.266391L111.935183 356.266391C130.166637 356.266391 144.963179 341.502877 144.963179 323.238395 144.963179 304.973913 130.166637 290.210399 111.935183 290.210399L82.209986 290.210399C36.928603 290.210399 0.069359 327.069643 0.069359 372.351026L0.069359 461.196336C0.069359 506.477719 36.928603 543.336963 82.209986 543.336963L155.433054 543.336963C158.405573 553.179306 161.807457 562.823481 165.011173 571.24562L114.643478 621.580286C82.606322 653.617443 82.606322 705.735621 114.61045 737.772778L177.462727 800.558999C208.476016 831.605315 262.608902 831.605315 293.622191 800.558999L343.857773 750.356444C353.336808 753.89044 363.047039 756.995072 371.865514 759.604283L371.865514 813.869281C371.865514 859.150664 408.724758 896.009908 454.039169 896.009908L542.851451 896.009908C588.165862 896.009908 624.992078 859.150664 624.992078 813.869281L624.992078 760.165759C634.537169 757.457464 643.983176 754.286776 653.297071 750.58764L703.26843 800.558999C734.24869 831.605315 788.414605 831.605315 819.427893 800.558999L882.247142 737.772778C914.251271 705.735621 914.251271 653.617443 882.247142 621.580286L832.275784 571.608928C835.941891 562.295033 839.112579 552.849026 841.853903 543.336963L914.647607 543.336963C959.962018 543.336963 996.821262 506.477719 996.821262 461.196336L996.821262 372.351026C996.821262 327.069643 959.962018 290.210399 914.647607 290.210399L841.853903 290.210399C839.112579 280.698336 835.941891 271.252329 832.275784 261.905406L882.247142 211.967075C914.251271 179.929919 914.251271 127.81174 882.247142 95.774584L819.427893 32.988363C788.414605 1.942046 734.281718 1.942046 703.235402 32.988363L653.297071 82.959721C643.983176 79.260586 634.537169 76.089898 624.992078 73.381602L624.992078-18.56834C624.992078-63.849723 588.165862-100.708967 542.851451-100.708967"  horiz-adv-x="1024" />

    
    <glyph glyph-name="icon-arrow-top4" unicode="&#59071;" d="M959.804 384.396l-84.009-84.024-299.652 302.221v-665.583l-127.94-0v665.583l-300.584-302.222-84.025 84.024 448.618 448.059 447.591-448.058z"  horiz-adv-x="1024" />

    
    <glyph glyph-name="icon-arrow-btm4" unicode="&#59082;" d="M512.213-62.989l-448.618 448.059 84.025 84.024 300.584-302.222v665.583h127.941v-665.583l299.652 302.222 84.009-84.024-447.592-448.059z"  horiz-adv-x="1024" />

    
    </font>
</defs>
</svg>
